<svg width="20" height="20" viewBox="0 0 20 20" fill="none" xmlns="http://www.w3.org/2000/svg">
<path d="M11.6663 5.83301V5.83301C11.6663 5.36835 11.6663 5.13603 11.6279 4.94283C11.4701 4.14945 10.8499 3.52925 10.0565 3.37144C9.86332 3.33301 9.63099 3.33301 9.16634 3.33301H7.33301C5.44739 3.33301 4.50458 3.33301 3.91879 3.91879C3.33301 4.50458 3.33301 5.44739 3.33301 7.33301V9.16634C3.33301 9.63099 3.33301 9.86332 3.37144 10.0565C3.52925 10.8499 4.14945 11.4701 4.94283 11.6279C5.13603 11.6663 5.36835 11.6663 5.83301 11.6663V11.6663" stroke="#691C32"/>
<rect x="8.33301" y="8.33301" width="8.33333" height="8.33333" rx="2" stroke="#691C32"/>
</svg>
