<svg width="71" height="71" viewBox="0 0 71 71" fill="none" xmlns="http://www.w3.org/2000/svg">
<path fill-rule="evenodd" clip-rule="evenodd" d="M35.8929 58.9813C38.7478 57.5967 56.2087 48.4765 56.2087 32.5416C56.2087 21.1047 46.9372 11.8333 35.5003 11.8333C24.0634 11.8333 14.792 21.1047 14.792 32.5416C14.792 48.4765 32.2529 57.5967 35.1078 58.9813C35.3641 59.1057 35.6366 59.1057 35.8929 58.9813ZM35.5003 41.4166C40.4019 41.4166 44.3753 37.4431 44.3753 32.5416C44.3753 27.6401 40.4019 23.6666 35.5003 23.6666C30.5988 23.6666 26.6253 27.6401 26.6253 32.5416C26.6253 37.4431 30.5988 41.4166 35.5003 41.4166Z" fill="#691C32"/>
</svg>
