<svg width="90" height="60" viewBox="0 0 90 60" fill="none" xmlns="http://www.w3.org/2000/svg">
<g clip-path="url(#clip0_707_2576)">
<path d="M41.0269 8.22152L44.8962 4.3481L48.7656 8.22152H56.5232C58.5717 8.22152 60.2408 6.55063 60.2408 4.5V0H55.7645C53.735 0 52.0849 1.63291 52.0469 3.66456C52.0469 3.68354 52.0469 4.8038 52.0469 4.8038H55.6128L54.892 4.55696C54.6644 4.48101 54.5316 4.27215 54.5316 4.0443V3.60759C54.5316 3 55.0248 2.50633 55.6317 2.50633H57.794V4.67089C57.794 5.27848 57.3009 5.77215 56.6939 5.77215H49.8277L44.8962 0.835443L40.0027 5.73418H39.4716C39.244 5.73418 39.0353 5.58228 38.9595 5.37342L38.7129 4.6519V8.22152H41.0269Z" fill="white"/>
<path d="M33.1171 5.75316C32.5101 5.75316 32.0169 5.25949 32.0169 4.6519V2.48734H34.1792C34.7862 2.48734 35.2793 2.98101 35.2793 3.58861V18.8354H38.8452L38.1244 18.5886C37.8968 18.5127 37.7641 18.3038 37.7641 18.076V3.75949C37.7451 1.67089 36.076 0 34.0275 0H29.5322V4.5C29.5322 6.55063 31.2014 8.22152 33.2498 8.22152H33.5533C33.7809 8.22152 33.9896 8.37342 34.0654 8.58228L34.312 9.3038V5.73418L33.1171 5.75316Z" fill="white"/>
<path d="M60.2588 23.5064C60.2588 21.4558 58.5897 19.7849 56.5412 19.7849H56.2378C56.0102 19.7849 55.8015 19.633 55.7256 19.4241L55.4791 18.7026V22.2722H56.693C57.2999 22.2722 57.7931 22.7659 57.7931 23.3735V25.538H55.6308C55.0238 25.538 54.5307 25.0444 54.5307 24.4368V9.18994H50.9648L51.6856 9.43678C51.9132 9.51273 52.046 9.72159 52.046 9.94944V24.2659C52.046 26.3165 53.7151 27.9874 55.7636 27.9874H60.2588V23.5064Z" fill="white"/>
<path d="M50.0545 19.7658C49.2199 19.7658 48.4233 20.0886 47.8543 20.6772L44.8954 23.6392L41.026 19.7658H33.2684C31.2199 19.7658 29.5508 21.4367 29.5508 23.4873V27.9873H34.046C36.0945 27.9873 37.7636 26.3164 37.7636 24.2658V23.1835H34.1978L34.9185 23.4304C35.1461 23.5063 35.2789 23.7152 35.2789 23.943V24.3987C35.2789 25.0063 34.7858 25.5 34.1788 25.5H32.0165V23.3354C32.0165 22.7278 32.5097 22.2342 33.1166 22.2342H39.9828L44.8764 27.1329L49.77 22.2342H50.301C50.5287 22.2342 50.7373 22.3861 50.8132 22.5949L51.0597 23.3164V19.7468L50.0545 19.7658Z" fill="white"/>
<path d="M51.4772 13.2341C50.8513 13.5379 50.1116 13.405 49.6184 12.9114L44.1179 7.40503C44.4214 8.03161 44.2886 8.77212 43.7954 9.26579L38.2949 14.7721C38.9208 14.4683 39.6606 14.6012 40.1537 15.0949L45.6542 20.6012C45.3508 19.9747 45.4835 19.2341 45.9767 18.7405L51.4772 13.2341ZM44.8956 16.3101L42.5815 13.9936L44.8956 11.6772L47.2096 13.9936L44.8956 16.3101Z" fill="white"/>
<path d="M0 50.5253V50.4114H0.85353C1.34668 50.4114 1.34668 50.1456 1.34668 49.7658V36.3418C1.34668 35.943 1.34668 35.6962 0.929399 35.6962H0V35.5823H5.53846C8.13699 35.5823 10.6596 36.5506 10.6596 39.1899C10.6596 40.8418 9.54057 42.019 7.98525 42.4557C10.2803 42.6646 12.196 43.9557 12.196 46.462C12.196 49.3671 9.48367 50.5443 6.6196 50.5443H0V50.5253ZM3.86934 42.4177H4.93151C6.99895 42.4177 8.28872 41.2975 8.28872 39.1899C8.28872 37.1202 7.07482 35.8291 5.02634 35.8291H3.86934V42.4177ZM5.93678 50.2975C8.28872 50.2975 9.69231 48.7975 9.69231 46.462C9.69231 44.0506 8.17492 42.6835 5.78504 42.6835H3.86934V50.3165H5.93678V50.2975Z" fill="white"/>
<path d="M14.0547 50.4116H15.2496C15.7428 50.4116 16.0083 50.1078 16.1411 49.766L21.6227 35.3926L27.0473 49.766C27.1611 50.1267 27.3887 50.4116 27.806 50.4116H28.5457V50.5255H23.1211V50.4116H23.8798C24.3729 50.4116 24.4867 50.1078 24.3729 49.766L22.7038 45.247H18.1327L16.4256 49.766C16.3118 50.1267 16.3687 50.4116 16.786 50.4116H18.6068V50.5255H14.0547V50.4116ZM22.59 45.0381L20.4277 39.266L18.2085 45.0381H22.59Z" fill="white"/>
<path d="M36.7022 50.4115C38.1058 50.3735 39.756 49.7089 39.756 48.038C39.756 44.3545 32.0742 44.0317 32.0742 39.4368C32.0742 36.9115 34.1796 35.2786 36.5505 35.2786C38.1627 35.2786 39.6611 36.3988 40.2302 36.3988C40.6854 36.3988 40.932 35.9431 41.0837 35.5064H41.1975V39.0191H41.0837V38.9811L41.0458 38.9241C40.3819 36.8165 38.4283 35.5444 36.4177 35.5444C35.0141 35.5824 33.7433 36.2849 33.7623 37.8039C33.8002 41.5634 41.6337 42.0191 41.6337 46.614C41.6337 49.2153 39.3766 50.6963 36.7591 50.6963C34.9572 50.6963 34.0468 49.7849 32.757 49.7849C32.3018 49.7849 31.9035 50.0507 31.6949 50.3925H31.5811V46.1393H31.6949C32.2828 48.5507 34.502 50.4115 36.7022 50.4115Z" fill="white"/>
<path d="M53.3745 35.5254C57.5283 35.5254 60.8666 38.8862 60.8666 43.0634C60.8666 46.0254 59.1216 48.6836 56.5989 49.8988C57.2059 50.1646 58.0025 50.5444 58.7233 50.5444C59.1405 50.5444 59.5388 50.4305 59.9372 50.1456H60.051C59.5009 51.114 58.5336 51.5887 57.4904 51.5507C56.5799 51.5127 55.6316 51.152 54.9298 50.4305C54.3797 50.6203 53.8107 50.6393 53.3365 50.6393C49.1637 50.6393 45.7686 47.2596 45.7686 43.0634C45.8065 38.8862 49.2016 35.5254 53.3745 35.5254ZM51.0794 49.1583C51.7812 48.7596 52.4451 48.6646 53.033 48.7406C53.9435 48.8545 54.797 49.1963 55.6885 49.557C57.13 48.2849 57.8887 45.6267 57.8887 43.4621C57.8887 39.8545 55.992 35.7722 52.9192 35.7722C50.2638 35.7722 48.8413 39.6077 48.8413 42.6646C48.8223 45.0381 49.6569 47.6583 51.0794 49.1583ZM53.7917 50.3735C54.0004 50.3735 54.3987 50.3165 54.6832 50.2216C54.2659 49.9748 53.2796 48.9684 52.1606 48.9684C51.7622 48.9684 51.4208 49.0824 51.1932 49.2153C51.9329 49.9178 52.6916 50.3735 53.7917 50.3735Z" fill="white"/>
<path d="M63.0283 50.4116H64.2233C64.7164 50.4116 64.982 50.1078 65.1147 49.766L70.5963 35.3926L76.021 49.766C76.1348 50.1267 76.3624 50.4116 76.7796 50.4116H77.5194V50.5255H72.0757V50.4116H72.8344C73.3276 50.4116 73.4414 50.1078 73.3276 49.766L71.6585 45.247H67.1253L65.4182 49.766C65.3044 50.1267 65.3613 50.4116 65.7786 50.4116H67.5995V50.5255H63.0283V50.4116ZM71.5636 45.0381L69.4013 39.266L67.1822 45.0381H71.5636Z" fill="white"/>
<path d="M79.7578 50.5253V50.4114H80.6113C81.1045 50.4114 81.1045 50.1456 81.1045 49.7658V36.3418C81.1045 35.943 81.1045 35.6962 80.6872 35.6962H79.7768V35.5823H84.9738V35.6962H84.1203C83.6271 35.6962 83.6271 35.962 83.6271 36.3418V50.2785H86.3774C88.0845 50.2785 89.1846 49.3101 90.0002 47.9051L89.4122 50.5253H79.7578Z" fill="white"/>
<path d="M20.6748 60.0001C20.4092 59.9811 20.2006 59.8292 20.0489 59.5444C19.954 59.3925 19.8971 59.1647 19.8402 58.9178C19.7643 58.652 19.6885 58.3862 19.5747 58.2343C19.4609 58.0634 19.2902 57.9875 19.0436 57.9875H17.9245V59.4685C17.9245 59.5444 17.9625 59.6204 18.0383 59.6773C18.0952 59.7343 18.1711 59.7533 18.1711 59.7533L18.1332 60.0001H17.0331L16.9951 59.7533C16.9951 59.7533 17.071 59.7343 17.1279 59.6773C17.2038 59.6204 17.2417 59.5444 17.2417 59.4685V55.8039C17.2417 55.614 17.0141 55.5381 16.9951 55.5381L17.0331 55.2913H19.2902C19.7643 55.2913 20.1627 55.4242 20.4472 55.69C20.7127 55.9368 20.8645 56.2786 20.8645 56.6583C20.8645 57.228 20.561 57.6267 20.0299 57.8356C20.1627 57.9115 20.2575 58.0064 20.2954 58.0634C20.4472 58.2723 20.5041 58.5381 20.5799 58.8039C20.6558 59.0887 20.7127 59.3545 20.8645 59.4875C20.9214 59.5444 20.9783 59.5634 21.0352 59.5634C21.3576 59.5634 21.5662 59.2216 21.5662 59.2216C21.5662 59.2216 21.5283 59.9811 20.7886 60.0001H20.6748ZM18.8729 57.6647C19.6505 57.6647 20.1437 57.2849 20.1437 56.6583C20.1437 56.3735 20.0299 56.1077 19.8402 55.9178C19.6316 55.709 19.3281 55.614 18.9867 55.614H17.9245V57.6647H18.8729Z" fill="white"/>
<path d="M42.1644 60.0001C41.8989 59.9811 41.6903 59.8292 41.5385 59.5444C41.4437 59.3925 41.3868 59.1647 41.3299 58.9178C41.254 58.652 41.1781 58.3862 41.0643 58.2343C40.9505 58.0634 40.7798 57.9875 40.5333 57.9875H39.4142V59.4685C39.4142 59.5444 39.4521 59.6204 39.528 59.6773C39.5849 59.7343 39.6608 59.7533 39.6608 59.7533L39.6228 60.0001H38.5038L38.4658 59.7533C38.4658 59.7533 38.5417 59.7343 38.5986 59.6773C38.6745 59.6204 38.7124 59.5444 38.7124 59.4685V55.8039C38.7124 55.614 38.4848 55.5381 38.4658 55.5381L38.5038 55.2913H40.7609C41.235 55.2913 41.6334 55.4242 41.9179 55.69C42.1834 55.9368 42.3352 56.2786 42.3352 56.6583C42.3352 57.228 42.0317 57.6267 41.5006 57.8356C41.6334 57.9115 41.7282 58.0064 41.7661 58.0634C41.9179 58.2723 41.9748 58.5381 42.0506 58.8039C42.1265 59.0887 42.1834 59.3545 42.3352 59.4875C42.3921 59.5444 42.449 59.5634 42.5059 59.5634C42.8283 59.5634 43.0369 59.2216 43.0369 59.2216C43.0369 59.2216 42.999 59.9811 42.2593 60.0001H42.1644ZM40.3626 57.6647C41.1402 57.6647 41.6334 57.2849 41.6334 56.6583C41.6334 56.3735 41.5196 56.1077 41.3299 55.9178C41.1212 55.709 40.8178 55.614 40.4764 55.614H39.4142V57.6647H40.3626Z" fill="white"/>
<path d="M20.6933 59.8672C20.4657 59.8483 20.295 59.7153 20.1622 59.4685C19.9726 59.1457 19.9157 58.4622 19.6691 58.1394C19.5363 57.9495 19.3277 57.8356 19.0242 57.8356H17.7724V59.4495C17.7724 59.7533 18.1138 59.8483 18.1138 59.8483H17.0137C17.0137 59.8483 17.3551 59.7533 17.3551 59.4495V55.785C17.3551 55.4812 17.0137 55.3862 17.0137 55.3862H19.2708C20.2002 55.3862 20.7313 55.9369 20.7313 56.6204C20.7313 57.4559 20.0105 57.7027 19.5932 57.7786C19.7639 57.7976 20.0295 57.8736 20.1812 58.1014C20.4657 58.5002 20.4278 59.2407 20.7502 59.5445C20.8451 59.6204 20.9209 59.6584 20.9968 59.6584C21.1296 59.6584 21.2434 59.5824 21.2434 59.5824C21.2434 59.5824 21.1296 59.8483 20.7502 59.8483H20.6933V59.8672ZM20.2761 56.6584C20.2761 56.0128 19.7639 55.5001 18.9673 55.5001H17.7724V57.7976H18.8725C19.7829 57.7786 20.2761 57.3039 20.2761 56.6584Z" fill="white"/>
<path d="M22.6092 59.9811L22.5713 59.7343C22.5713 59.7343 22.8179 59.6583 22.8179 59.4685V55.8039C22.8179 55.614 22.5903 55.5381 22.5713 55.5381L22.6092 55.2913H26.1941L26.3648 56.1647L26.1182 56.2406C25.9095 55.671 25.5492 55.614 25.3974 55.614H23.5007V57.4748H25.2457C25.4164 57.4748 25.5302 57.2659 25.5492 57.0571L25.7957 57.0761V58.1963L25.5492 58.2153C25.5112 57.9685 25.3595 57.7976 25.2457 57.7976H23.5007V59.6583H25.2647C25.5492 59.6583 25.9095 59.5634 26.2889 58.7659L26.5165 58.8609L26.1751 60.0001L22.6092 59.9811Z" fill="white"/>
<path d="M22.6094 59.8673C22.6094 59.8673 22.9508 59.7724 22.9508 59.4686V55.804C22.9508 55.5002 22.6094 55.4053 22.6094 55.4053H26.0994L26.2511 56.1838C26.0235 55.5762 25.6252 55.4812 25.3976 55.4812H23.3681V57.6078H25.2458C25.4545 57.6078 25.6441 57.38 25.6821 57.0762V58.1964C25.6441 57.9116 25.4545 57.6838 25.2458 57.6838H23.3681V59.8103H25.2458C25.5872 59.8103 26.0045 59.6584 26.3839 58.842L26.0614 59.8863L22.6094 59.8673Z" fill="white"/>
<path d="M29.5894 60H29.4566C28.7548 59.962 28.1479 59.6772 27.6737 59.2025L27.6357 59.1645V57.7975L27.8823 57.7785C27.9772 58.519 28.2617 59.0696 28.6979 59.3734C28.9255 59.5253 29.1721 59.6202 29.4566 59.6582H29.5894C30.0446 59.6582 30.7654 59.4114 30.7654 58.7468V58.6709C30.7274 58.2152 30.1015 58.0253 29.4187 57.8544C28.6031 57.6266 27.6737 57.3797 27.6737 56.5063V56.4683C27.6926 56.1456 27.8633 55.8607 28.1479 55.6519C28.4513 55.443 28.8497 55.3291 29.3238 55.3291H29.4187C29.7411 55.3291 30.405 55.5 30.8981 55.9177L30.9361 55.9557V57.057L30.6895 57.0759C30.5946 56.5823 30.386 56.2025 30.0636 55.9557C29.817 55.7658 29.5514 55.6709 29.3807 55.6709H29.2859C28.7548 55.6709 28.3375 55.9367 28.3186 56.2975V56.3354C28.3186 56.5823 28.4513 56.7532 28.7169 56.9051C28.9824 57.057 29.3238 57.1519 29.7032 57.2658C30.1015 57.3797 30.4998 57.4937 30.8033 57.6645C31.1826 57.8734 31.3723 58.1582 31.3913 58.519V58.5759C31.3913 58.9747 31.1826 59.3354 30.8223 59.6202C30.5377 59.8481 30.0825 60 29.5894 60Z" fill="white"/>
<path d="M29.4752 59.8673C29.0959 59.8483 28.3941 59.7344 27.7871 59.1078V57.7977C28.0337 59.6584 29.2666 59.7534 29.4752 59.7724H29.608C30.177 59.7724 30.9167 59.4496 30.9167 58.7281V58.6521C30.8409 57.4749 27.844 57.9496 27.844 56.4686V56.4306C27.863 55.861 28.451 55.4053 29.3804 55.4053H29.4752C29.7597 55.4053 30.4046 55.5572 30.8788 55.9559V57.0002C30.6512 55.785 29.8166 55.5002 29.4752 55.4812H29.3614C28.7165 55.4812 28.2803 55.823 28.2613 56.2217V56.2597C28.2613 57.5698 31.2581 57.0572 31.334 58.4622V58.5192C31.334 59.2597 30.5374 59.8483 29.589 59.8483L29.4752 59.8673Z" fill="white"/>
<path d="M34.9193 59.9811C33.6296 59.9811 32.5674 58.9368 32.5674 57.6457C32.5674 57.0191 32.814 56.4305 33.2502 55.9748C33.6865 55.5381 34.2744 55.2913 34.9193 55.2913C36.2091 55.2913 37.2523 56.3545 37.2523 57.6457C37.2713 58.9368 36.2091 59.9811 34.9193 59.9811ZM34.9193 55.614C34.0279 55.614 33.2881 56.5254 33.2881 57.6457C33.2881 58.7659 34.0089 59.6773 34.9193 59.6773C35.8108 59.6773 36.5505 58.7659 36.5505 57.6457C36.5505 56.5254 35.8108 55.614 34.9193 55.614Z" fill="white"/>
<path d="M32.7002 57.6456C32.7002 56.4114 33.6865 55.4241 34.9194 55.4241C36.1333 55.4241 37.1386 56.4114 37.1386 57.6456C37.1386 58.8608 36.1523 59.8671 34.9194 59.8671C33.6865 59.8671 32.7002 58.8608 32.7002 57.6456ZM36.6644 57.6456C36.6644 56.4684 35.8867 55.5 34.9004 55.5C33.9331 55.5 33.1554 56.4684 33.1554 57.6456C33.1554 58.8228 33.9331 59.7912 34.9004 59.7912C35.8867 59.7912 36.6644 58.8228 36.6644 57.6456Z" fill="white"/>
<path d="M42.1836 59.8672C41.956 59.8483 41.7853 59.7153 41.6525 59.4685C41.4628 59.1457 41.4059 58.4622 41.1593 58.1394C41.0266 57.9495 40.8179 57.8356 40.5144 57.8356H39.2626V59.4495C39.2626 59.7533 39.604 59.8483 39.604 59.8483H38.5039C38.5039 59.8483 38.8453 59.7533 38.8453 59.4495V55.785C38.8453 55.4812 38.5039 55.3862 38.5039 55.3862H40.761C41.6904 55.3862 42.2215 55.9369 42.2215 56.6204C42.2215 57.4559 41.5007 57.7027 41.0835 57.7786C41.2542 57.7976 41.5197 57.8736 41.6715 58.1014C41.956 58.5002 41.918 59.2407 42.2405 59.5445C42.3353 59.6204 42.4112 59.6584 42.487 59.6584C42.6198 59.6584 42.7336 59.5824 42.7336 59.5824C42.7336 59.5824 42.6198 59.8483 42.2405 59.8483H42.1836V59.8672ZM41.7473 56.6584C41.7473 56.0128 41.2352 55.5001 40.4386 55.5001H39.2626V57.7976H40.3627C41.2731 57.7786 41.7473 57.3039 41.7473 56.6584Z" fill="white"/>
<path d="M45.6928 59.9812L45.6549 59.7344C45.6549 59.7344 45.9015 59.6584 45.9015 59.4685V55.6141H44.6876C44.5548 55.6141 44.3461 55.785 44.2134 56.2407L43.9668 56.1837L44.1375 55.3103H48.3482L48.519 56.1837L48.2724 56.2407C48.1965 55.9559 48.0068 55.6141 47.7982 55.6141H46.5653V59.4685C46.5653 59.6584 46.7929 59.7344 46.8119 59.7344L46.774 59.9812H45.6928Z" fill="white"/>
<path d="M45.6929 59.8673C45.6929 59.8673 46.0343 59.7724 46.0343 59.4686V55.4812H44.6876C44.479 55.4812 44.2324 55.6901 44.0996 56.1838L44.2513 55.4053H48.2535L48.4052 56.1838C48.2535 55.6901 48.0258 55.4812 47.8172 55.4812H46.4705V59.4686C46.4705 59.7724 46.8119 59.8673 46.8119 59.8673H45.6929Z" fill="white"/>
<path d="M53.5074 59.9811C53.0142 59.9811 52.559 59.8102 52.2176 59.5254C51.8762 59.2216 51.6865 58.8418 51.6865 58.4051C51.6865 57.9304 52.0279 57.4937 52.559 57.2849C52.3314 56.9811 52.1797 56.6773 52.1797 56.2975V56.2785C52.1797 55.6899 52.6918 55.2722 53.4126 55.2722H53.5074C54.1333 55.3102 54.7023 55.8039 54.7023 56.3545V56.4304C54.6834 56.6583 54.5885 56.8482 54.4178 57.019C54.2092 57.2089 53.9247 57.3418 53.5264 57.4178C54.0385 57.9874 54.6644 58.519 54.9299 58.7469C54.9489 58.6899 54.9679 58.614 54.9679 58.557C54.9679 58.2342 54.7213 57.9874 54.4178 57.9874H54.1712L54.5696 57.2849L54.6644 57.3039C54.9868 57.3418 55.4421 57.7596 55.4421 58.3292C55.4421 58.538 55.3852 58.7659 55.2524 58.9937C55.4231 59.1266 55.7266 59.3165 55.9542 59.3165C55.9731 59.3165 55.9921 59.3165 56.0111 59.3165H56.03L56.1249 59.5444C56.1249 59.5444 55.9162 59.6963 55.5938 59.6963C55.3662 59.6963 55.1386 59.6393 54.892 59.5064C54.5127 59.8102 54.0385 59.9811 53.5074 59.9811ZM52.3693 58.4051C52.3883 58.9747 52.8435 59.5823 53.6212 59.5823H53.6402C53.8109 59.5823 54.2281 59.5444 54.5696 59.2596C53.6781 58.614 53.0522 57.8735 52.8435 57.6266C52.4263 57.9115 52.3693 58.2153 52.3693 58.4051ZM52.8246 56.2216C52.8246 56.4874 53.0332 56.8482 53.2229 57.095C53.4126 57.038 53.9436 56.8292 54.0195 56.3545C54.0195 56.3355 54.0195 56.3165 54.0195 56.2785C54.0195 56.0507 53.8867 55.652 53.5074 55.614H53.4505C53.2418 55.614 52.8815 55.7279 52.8246 56.1456V56.2216Z" fill="white"/>
<path d="M51.8193 58.4053C51.8193 57.9686 52.1607 57.5319 52.7677 57.361C52.3694 56.8863 52.3125 56.5825 52.3125 56.3167V56.2977C52.3125 55.804 52.7487 55.4053 53.4126 55.4053H53.5074C54.0954 55.4432 54.5696 55.8989 54.5696 56.3546V56.4116C54.5506 56.6964 54.361 57.1711 53.2608 57.323C53.9437 58.1584 54.9489 58.9369 54.9489 58.9369C55.0248 58.804 55.0627 58.6711 55.0627 58.5382C55.0627 58.1584 54.7782 57.8357 54.3799 57.8357H54.361L54.6075 57.3989C54.8541 57.4369 55.2714 57.7787 55.2714 58.3103C55.2714 58.5192 55.2145 58.7471 55.0438 58.9939C55.0438 58.9939 55.5369 59.4116 55.9163 59.4116C55.9542 59.4116 55.9732 59.4116 56.0111 59.3926C56.0111 59.3926 55.8404 59.5255 55.5559 59.5255C55.3662 59.5255 55.1196 59.4686 54.8351 59.2977C54.5127 59.6395 54.0575 59.8483 53.5074 59.8483C52.5401 59.8483 51.8193 59.2027 51.8193 58.4053ZM54.7593 59.2407C53.6212 58.4433 52.8625 57.4559 52.8625 57.4559C52.3694 57.7407 52.2366 58.1015 52.2366 58.3863V58.4053C52.2556 59.0698 52.8056 59.6964 53.6212 59.6964H53.6402C53.9816 59.7154 54.4368 59.6015 54.7593 59.2407ZM54.1523 56.3736C54.1523 56.3357 54.1523 56.3167 54.1523 56.2787C54.1523 55.9939 53.9816 55.5382 53.5264 55.4812H53.4505C53.166 55.4812 52.7677 55.6521 52.6918 56.1268V56.2217C52.6918 56.5635 52.9574 56.9812 53.185 57.247C53.185 57.247 54.0385 57.0572 54.1523 56.3736Z" fill="white"/>
<path d="M61.0376 60H60.9049C60.2031 59.962 59.5961 59.6772 59.1219 59.2025L59.084 59.1645V57.7975L59.3306 57.7785C59.4254 58.519 59.7099 59.0696 60.1462 59.3734C60.3738 59.5253 60.6204 59.6202 60.9049 59.6582H61.0376C61.4929 59.6582 62.2136 59.4114 62.2136 58.7468V58.6709C62.1757 58.2152 61.5498 58.0253 60.8669 57.8544C60.0513 57.6266 59.1219 57.3797 59.1219 56.5063V56.4683C59.1409 56.1456 59.3116 55.8607 59.5961 55.6519C59.8996 55.443 60.2979 55.3291 60.7721 55.3291H60.8669C61.1894 55.3291 61.8532 55.5 62.3464 55.9177L62.3843 55.9557V57.057L62.1377 57.0759C62.0429 56.5823 61.8343 56.2025 61.5118 55.9557C61.2652 55.7658 60.9997 55.6709 60.829 55.6709H60.7342C60.2031 55.6709 59.7858 55.9367 59.7668 56.2975V56.3354C59.7668 56.5823 59.8996 56.7532 60.1651 56.9051C60.4307 57.057 60.7721 57.1519 61.1514 57.2658C61.5498 57.3797 61.9481 57.4937 62.2516 57.6645C62.6309 57.8734 62.8206 58.1582 62.8395 58.519V58.5759C62.8395 58.9747 62.6309 59.3354 62.2705 59.6202C61.986 59.8481 61.5308 60 61.0376 60Z" fill="white"/>
<path d="M60.9234 59.8673C60.5441 59.8483 59.8423 59.7344 59.2354 59.1078V57.7977C59.4819 59.6584 60.7148 59.7534 60.9234 59.7724H61.0562C61.6252 59.7724 62.365 59.4496 62.365 58.7281V58.6521C62.2891 57.4749 59.2923 57.9496 59.2923 56.4686V56.4306C59.3112 55.861 59.8992 55.4053 60.8286 55.4053H60.9234C61.208 55.4053 61.8528 55.5572 62.327 55.9559V57.0002C62.0994 55.785 61.2649 55.5002 60.9234 55.4812H60.8096C60.1648 55.4812 59.7285 55.823 59.7095 56.2217V56.2597C59.7095 57.5698 62.7064 57.0572 62.7822 58.4622V58.5192C62.7822 59.2597 61.9856 59.8483 61.0372 59.8483L60.9234 59.8673Z" fill="white"/>
<path d="M64.1483 59.9811L64.1104 59.7343C64.1104 59.7343 64.3569 59.6583 64.3569 59.4685V55.8039C64.3569 55.614 64.1104 55.5381 64.1104 55.5381L64.1483 55.2913H66.4054C66.8796 55.2913 67.2779 55.4242 67.5624 55.69C67.8279 55.9368 67.9797 56.2786 67.9797 56.6583C67.9797 57.209 67.6952 57.6077 67.183 57.8166C66.8037 57.9685 66.4244 57.9875 66.4054 57.9875H65.0208V59.4685C65.0208 59.6583 65.2484 59.7343 65.2674 59.7343L65.2294 59.9811H64.888H64.1483ZM66.0071 57.6647C66.7847 57.6647 67.2589 57.2849 67.2589 56.6583C67.2589 56.3735 67.1451 56.1077 66.9554 55.9178C66.7468 55.709 66.4433 55.614 66.1019 55.614H65.0397V57.6647H66.0071Z" fill="white"/>
<path d="M64.1475 59.8673C64.1475 59.8673 64.4889 59.7724 64.4889 59.4686V55.804C64.4889 55.5002 64.1475 55.4053 64.1475 55.4053H66.4046C67.3339 55.4053 67.8461 55.9559 67.8461 56.6395C67.8461 57.8357 66.3856 57.8357 66.3856 57.8357H64.8872V59.4496C64.8872 59.7534 65.2286 59.8483 65.2286 59.8483H64.8872L64.1475 59.8673ZM67.3908 56.6584C67.3908 56.0129 66.8977 55.5002 66.1011 55.5002H64.9061V57.7977H66.0062C66.9167 57.7787 67.3908 57.304 67.3908 56.6584Z" fill="white"/>
<path d="M71.7916 59.9811L71.7727 59.7343C71.8675 59.7153 72.0003 59.6583 72.0003 59.5634C72.0003 59.5444 72.0003 59.5254 72.0003 59.5254L71.6778 58.8039H69.4207L69.0983 59.5444C69.0983 59.5444 69.0983 59.5634 69.0983 59.5824C69.0983 59.6773 69.25 59.7153 69.3259 59.7343L69.3069 59.9811H68.4155L68.3965 59.7343C68.4155 59.7343 68.662 59.6963 68.7948 59.4305L70.7484 55.1204L72.7021 59.4305C72.8159 59.6773 73.0435 59.7343 73.0435 59.7343L73.0055 59.9811H71.7916ZM71.5071 58.4811L70.5398 56.3166L69.5725 58.4811H71.5071Z" fill="white"/>
<path d="M71.7916 59.8671C72.0572 59.8101 72.1141 59.6583 72.1141 59.5823C72.1141 59.5253 72.0951 59.4874 72.0951 59.4874L71.7347 58.6899H69.3259L68.9655 59.4874C68.9655 59.4874 68.9465 59.5253 68.9465 59.5823C68.9465 59.6772 69.0034 59.8101 69.2879 59.8671H68.3965C68.3965 59.8671 68.7189 59.8291 68.8896 59.4874L70.7295 55.4241L72.5693 59.4874C72.721 59.8101 73.0055 59.8671 73.0055 59.8671H71.7916ZM70.5398 56.0127L69.3638 58.614H71.6968L70.5398 56.0127Z" fill="white"/>
</g>
<defs>
<clipPath id="clip0_707_2576">
<rect width="90" height="60" fill="white"/>
</clipPath>
</defs>
</svg>
