<svg width="70" height="48" viewBox="0 0 70 48" fill="none" xmlns="http://www.w3.org/2000/svg">
<path d="M31.9074 6.48453L34.9197 3.42788L37.9319 6.48453H43.9623C44.7298 6.48453 45.4658 6.17536 46.0088 5.62495C46.5518 5.07455 46.8572 4.32792 46.858 3.54913V2.94256e-08H43.3619C42.6027 -0.000108955 41.8738 0.302522 41.3324 0.842659C40.791 1.3828 40.4804 2.11718 40.4677 2.8875C40.4677 2.90546 40.4677 3.78563 40.4677 3.78563H43.2394L42.6774 3.58356C42.5945 3.5538 42.5227 3.49865 42.472 3.42572C42.4212 3.35279 42.3941 3.26567 42.3942 3.1764V2.82463C42.3942 2.59398 42.4845 2.37276 42.6452 2.20966C42.806 2.04657 43.0239 1.95494 43.2513 1.95494H44.9344V3.6614C44.9346 3.77573 44.9126 3.88898 44.8696 3.99467C44.8266 4.10036 44.7635 4.19641 44.6839 4.27733C44.6043 4.35824 44.5097 4.42244 44.4057 4.46624C44.3016 4.51004 44.19 4.53259 44.0773 4.53259H38.7299L34.9197 0.66462L31.1108 4.53109H30.6978C30.6099 4.53102 30.5241 4.50336 30.4523 4.45191C30.3805 4.40046 30.3261 4.32773 30.2966 4.24369L30.0974 3.67337V6.48453H31.9074Z" fill="#691C32"/>
<path d="M25.7484 4.53109C25.6358 4.53109 25.5242 4.50854 25.4201 4.46475C25.316 4.42095 25.2215 4.35675 25.1419 4.27583C25.0623 4.19492 24.9992 4.09886 24.9562 3.99318C24.9132 3.88749 24.8912 3.77423 24.8914 3.6599V1.95344H26.5745C26.8018 1.95344 27.0198 2.04507 27.1805 2.20817C27.3413 2.37127 27.4316 2.59248 27.4316 2.82313V14.8372H30.2034L29.6413 14.6366C29.558 14.6068 29.4858 14.5515 29.4348 14.4783C29.3838 14.4051 29.3565 14.3176 29.3566 14.2279V2.9384C29.3566 2.5524 29.2817 2.17017 29.1361 1.81357C28.9905 1.45697 28.777 1.13298 28.508 0.860105C28.2389 0.58723 27.9195 0.370822 27.568 0.223241C27.2166 0.075661 26.8398 -0.000196257 26.4595 3.81319e-07H22.9648V3.54913C22.9648 4.32844 23.2699 5.07583 23.813 5.62689C24.356 6.17794 25.0926 6.48753 25.8605 6.48753H26.0951C26.1832 6.48771 26.2691 6.51558 26.3409 6.56732C26.4128 6.61905 26.4671 6.6921 26.4963 6.77643L26.6955 7.34674V4.53109H25.7484Z" fill="#691C32"/>
<path d="M46.8579 18.518C46.8579 17.7391 46.5533 16.992 46.0109 16.4408C45.4685 15.8896 44.7327 15.5793 43.9651 15.5781H43.7291C43.641 15.5779 43.5551 15.5501 43.4833 15.4983C43.4114 15.4466 43.3571 15.3735 43.3279 15.2892L43.1287 14.7189V17.5316H44.0802C44.3076 17.532 44.5256 17.6239 44.6863 17.7873C44.847 17.9506 44.9373 18.172 44.9373 18.4028V20.1092H43.2497C43.0224 20.1092 42.8044 20.0176 42.6437 19.8545C42.4829 19.6914 42.3926 19.4702 42.3926 19.2395V7.23145H39.6208L40.1829 7.43353C40.266 7.46322 40.338 7.51831 40.3889 7.59122C40.4399 7.66413 40.4674 7.75128 40.4676 7.84068V19.1302C40.4674 19.5162 40.5421 19.8985 40.6876 20.2552C40.833 20.6118 41.0463 20.936 41.3152 21.209C41.5841 21.482 41.9034 21.6986 42.2548 21.8463C42.6062 21.9941 42.9829 22.0701 43.3633 22.0701H46.8579V18.518Z" fill="#691C32"/>
<path d="M38.917 15.5842C38.5979 15.5841 38.2819 15.6477 37.987 15.7715C37.6922 15.8953 37.4242 16.0768 37.1985 16.3057L34.8973 18.6409L31.8909 15.5842H25.8605C25.0933 15.5842 24.3575 15.8932 23.8145 16.4433C23.2716 16.9934 22.966 17.7396 22.9648 18.5181V22.0658H26.4609C26.8413 22.0658 27.218 21.9897 27.5694 21.842C27.9208 21.6942 28.2401 21.4776 28.509 21.2046C28.7779 20.9316 28.9912 20.6075 29.1366 20.2508C29.2821 19.8941 29.3568 19.5119 29.3566 19.1259V18.2801H26.5863L27.1483 18.4822C27.2312 18.5122 27.3028 18.5674 27.3535 18.6402C27.4042 18.7131 27.4315 18.8001 27.4316 18.8894V19.2411C27.4316 19.4718 27.3413 19.693 27.1805 19.8561C27.0198 20.0192 26.8018 20.1108 26.5745 20.1108H24.8914V18.4044C24.8912 18.29 24.9132 18.1768 24.9562 18.0711C24.9992 17.9654 25.0623 17.8694 25.1419 17.7884C25.2215 17.7075 25.316 17.6433 25.4201 17.5995C25.5242 17.5557 25.6358 17.5332 25.7484 17.5332H31.0988L34.9076 21.3997L38.7194 17.5332H39.1353C39.2234 17.5334 39.3093 17.5612 39.3812 17.613C39.453 17.6647 39.5073 17.7378 39.5366 17.8221L39.7357 18.3924V15.5842H38.917Z" fill="#691C32"/>
<path d="M40.0293 10.4348C39.7925 10.5496 39.5265 10.587 39.2678 10.542C39.0092 10.4969 38.7707 10.3716 38.5851 10.1833L34.3072 5.84229C34.4204 6.08256 34.4573 6.35253 34.4129 6.61499C34.3685 6.87745 34.245 7.11948 34.0594 7.30774L29.7815 11.6487C30.0184 11.5344 30.2843 11.4971 30.5429 11.5422C30.8014 11.5872 31.0399 11.7123 31.2257 11.9002L35.5036 16.2412C35.3904 16.0009 35.3535 15.731 35.3979 15.4685C35.4423 15.206 35.5658 14.964 35.7514 14.7757L40.0293 10.4348ZM34.9106 12.8657L33.1138 11.0335L34.912 9.21029L36.7043 11.0335L34.9106 12.8657Z" fill="#FFCF69"/>
<path d="M0 39.8383V39.7425H0.663814C1.04293 39.7425 1.04293 39.5254 1.04293 39.2365V28.6535C1.04293 28.3407 1.04293 28.1476 0.71102 28.1476H0V28.0518H4.31479C6.32983 28.0518 8.29767 28.8212 8.29767 30.8958C8.29767 32.1951 7.41997 33.1412 6.21183 33.4705C7.982 33.6381 9.48221 34.6485 9.48221 36.614C9.48221 38.8982 7.37276 39.8368 5.14382 39.8368L0 39.8383ZM3.01077 33.4406H3.84127C5.45213 33.4406 6.44785 32.5424 6.44785 30.8958C6.44785 29.2597 5.49933 28.2508 3.91208 28.2508H3.01077V33.4406ZM4.62309 39.6467C6.44785 39.6467 7.53798 38.4671 7.53798 36.6155C7.53798 34.7144 6.35786 33.6322 4.50508 33.6322H3.01077V39.6467H4.62309Z" fill="#691C32"/>
<path d="M10.928 39.7425H11.8529C12.0061 39.7456 12.1562 39.6979 12.2803 39.6066C12.4044 39.5153 12.4957 39.3853 12.5403 39.2365L16.8079 27.9081L21.0268 39.2365C21.1212 39.5254 21.2879 39.7425 21.6169 39.7425H22.1848V39.8383H17.9703V39.7425H18.5604C18.9395 39.7425 19.0339 39.5015 18.9395 39.2365L17.6355 35.6769H14.1054L12.7778 39.2365C12.6819 39.5254 12.7306 39.7425 13.0625 39.7425H14.4845V39.8383H10.928V39.7425ZM17.5661 35.5093L15.883 30.9617L14.1526 35.5093H17.5661Z" fill="#691C32"/>
<path d="M28.541 39.7425C29.6311 39.7186 30.9116 39.1887 30.9116 37.8654C30.9116 34.9555 24.9372 34.7219 24.9372 31.083C24.9372 29.0861 26.5732 27.8108 28.423 27.8108C29.6783 27.8108 30.8408 28.7014 31.2907 28.7014C31.6462 28.7014 31.8365 28.3407 31.9545 28.0039H32.0489V30.7701H31.9545V30.7462L31.9309 30.6983C31.6859 29.9235 31.205 29.2476 30.5574 28.7677C29.9098 28.2879 29.129 28.0288 28.3271 28.0278C27.237 28.0518 26.2413 28.6056 26.2619 29.8076C26.2855 32.767 32.3779 33.1278 32.3779 36.7592C32.3779 38.804 30.6239 39.9835 28.5853 39.9835C27.1868 39.9835 26.4758 39.262 25.4801 39.262C25.3133 39.2663 25.1502 39.3125 25.0053 39.3963C24.8604 39.4801 24.7382 39.5991 24.6496 39.7425H24.5552V36.3745H24.6496C25.1039 38.2771 26.8343 39.7425 28.541 39.7425Z" fill="#691C32"/>
<path d="M41.5075 28.0038C42.2752 28.004 43.0353 28.158 43.7443 28.4569C44.4532 28.7558 45.097 29.1938 45.6388 29.7458C46.1805 30.2978 46.6096 30.9528 46.9013 31.6734C47.193 32.394 47.3417 33.1659 47.3388 33.9449C47.3364 35.068 47.0242 36.168 46.4376 37.1203C45.851 38.0727 45.0135 38.8394 44.0197 39.3337C44.4932 39.5493 45.1098 39.8382 45.6792 39.8382C46.0201 39.8384 46.3521 39.7288 46.6277 39.5254H46.7221C46.5262 39.881 46.2355 40.1735 45.8832 40.3692C45.531 40.5648 45.1315 40.6558 44.7307 40.6315C43.9781 40.6096 43.2637 40.2906 42.7393 39.7424C42.34 39.864 41.9242 39.9206 41.5075 39.91C40.7371 39.91 39.9742 39.7561 39.2625 39.4569C38.5507 39.1577 37.9039 38.7192 37.3592 38.1664C36.8144 37.6136 36.3823 36.9573 36.0874 36.2351C35.7926 35.5128 35.6409 34.7387 35.6409 33.9569C35.6409 33.1751 35.7926 32.401 36.0874 31.6787C36.3823 30.9565 36.8144 30.3002 37.3592 29.7474C37.9039 29.1946 38.5507 28.7561 39.2625 28.4569C39.9742 28.1578 40.7371 28.0038 41.5075 28.0038ZM39.7285 38.7559C40.1874 38.486 40.7188 38.3707 41.2464 38.4266C41.9574 38.5224 42.6212 38.7874 43.3116 39.0763C44.4253 38.0659 45.0184 35.9732 45.0184 34.2653C45.0184 31.4212 43.5432 28.2029 41.155 28.2029C39.0898 28.2029 37.9775 31.2341 37.9775 33.6396C37.9745 35.5092 38.6221 37.5779 39.7285 38.7559ZM41.8394 39.7184C42.0729 39.7098 42.3042 39.669 42.5268 39.5972C42.1949 39.4056 41.4352 38.6122 40.559 38.6122C40.295 38.6154 40.0354 38.681 39.8008 38.8038C40.3923 39.3577 40.9824 39.7184 41.8394 39.7184Z" fill="#691C32"/>
<path d="M49.0205 39.7425H49.9454C50.0987 39.7456 50.2487 39.6979 50.3728 39.6066C50.4969 39.5153 50.5882 39.3853 50.6328 39.2365L54.9004 27.9081L59.1267 39.2365C59.2211 39.5254 59.3878 39.7425 59.7168 39.7425H60.2862V39.8383H56.0614V39.7425H56.6514C57.0305 39.7425 57.1249 39.5015 57.0305 39.2365L55.7339 35.6769H52.1935L50.8659 39.2365C50.7715 39.5254 50.8187 39.7425 51.1506 39.7425H52.5726V39.8383H49.0205V39.7425ZM55.6586 35.5093L53.9755 30.9617L52.2452 35.5093H55.6586Z" fill="#691C32"/>
<path d="M62.0356 39.8383V39.7425H62.698C63.0786 39.7425 63.0786 39.5254 63.0786 39.2365V28.6535C63.0786 28.3407 63.0786 28.1476 62.7467 28.1476H62.0356V28.0518H66.0879V28.1476H65.4255C65.0449 28.1476 65.0449 28.3646 65.0449 28.6535V39.6467H67.1795C68.5071 39.6467 69.3597 38.8758 69.9999 37.7696L69.55 39.8383H62.0356Z" fill="#691C32"/>
<path d="M16.0847 47.2943C15.98 47.2813 15.8803 47.2417 15.7947 47.1791C15.709 47.1166 15.6404 47.0331 15.595 46.9365C15.5211 46.7813 15.4647 46.6181 15.4268 46.45C15.3878 46.2579 15.3186 46.0734 15.2218 45.9037C15.174 45.8382 15.1107 45.7862 15.0376 45.7524C14.9646 45.7186 14.8843 45.7042 14.8043 45.7106H13.9281V46.8841C13.9295 46.9164 13.9384 46.9478 13.954 46.9759C13.9696 47.004 13.9916 47.0279 14.0181 47.0458C14.0499 47.0692 14.0846 47.0883 14.1213 47.1027L14.0918 47.2973H13.2421L13.2141 47.1012C13.2516 47.0883 13.2869 47.0696 13.3188 47.0458C13.3452 47.028 13.3669 47.0041 13.3821 46.9759C13.3972 46.9477 13.4054 46.9162 13.4059 46.8841V43.9951C13.4059 43.8454 13.223 43.7856 13.2156 43.7826L13.2421 43.588H15.002C15.3302 43.5755 15.6513 43.687 15.9033 43.9008C16.0078 43.9968 16.0911 44.1143 16.1475 44.2454C16.204 44.3764 16.2323 44.5182 16.2308 44.6613C16.2368 44.8673 16.1761 45.0697 16.0581 45.2376C15.9401 45.4054 15.7713 45.5295 15.5773 45.5908C15.6558 45.6352 15.7238 45.6965 15.7764 45.7704C15.8828 45.9507 15.9563 46.149 15.9933 46.3557C16.0464 46.5758 16.0965 46.7823 16.2086 46.8871C16.2431 46.9235 16.2903 46.9445 16.3399 46.9455C16.5878 46.9455 16.75 46.6791 16.75 46.6791C16.75 46.6791 16.7235 47.2778 16.1423 47.2943H16.0847ZM14.6834 45.4531C15.2896 45.4531 15.6658 45.1537 15.6658 44.6613C15.6667 44.5533 15.6456 44.4464 15.6037 44.3472C15.5618 44.248 15.5001 44.1587 15.4224 44.0849C15.238 43.9201 14.9983 43.8333 14.7527 43.8424H13.9222V45.4531H14.6834Z" fill="#691C32"/>
<path d="M32.7967 47.2943C32.692 47.2813 32.5922 47.2417 32.5066 47.1791C32.421 47.1166 32.3523 47.0331 32.3069 46.9365C32.233 46.7813 32.1766 46.6181 32.1388 46.45C32.0998 46.2579 32.0305 46.0734 31.9337 45.9037C31.886 45.8382 31.8226 45.7862 31.7496 45.7524C31.6766 45.7186 31.5963 45.7042 31.5163 45.7106H30.64V46.8841C30.6414 46.9164 30.6503 46.9478 30.666 46.9759C30.6816 47.004 30.7035 47.0279 30.73 47.0458C30.7619 47.0692 30.7966 47.0883 30.8333 47.1027L30.8038 47.2973H29.9482L29.9202 47.1012C29.9577 47.0883 29.993 47.0696 30.0249 47.0458C30.0513 47.028 30.073 47.0041 30.0881 46.9759C30.1033 46.9477 30.1115 46.9162 30.1119 46.8841V43.9951C30.1119 43.8454 29.929 43.7856 29.9216 43.7826L29.9482 43.588H31.708C32.0363 43.5755 32.3574 43.687 32.6093 43.9008C32.7139 43.9968 32.7971 44.1143 32.8536 44.2454C32.91 44.3764 32.9384 44.5182 32.9368 44.6613C32.9428 44.8673 32.8822 45.0697 32.7642 45.2376C32.6462 45.4054 32.4773 45.5295 32.2833 45.5908C32.3616 45.6356 32.4295 45.6968 32.4825 45.7704C32.5889 45.9507 32.6623 46.149 32.6993 46.3557C32.7524 46.5758 32.8026 46.7823 32.9147 46.8871C32.9491 46.9235 32.9963 46.9445 33.046 46.9455C33.2938 46.9455 33.4561 46.6791 33.4561 46.6791C33.4561 46.6791 33.4295 47.2778 32.8483 47.2943H32.7967ZM31.3953 45.4531C32.0016 45.4531 32.3778 45.1537 32.3778 44.6613C32.3783 44.5531 32.3567 44.446 32.3143 44.3468C32.2719 44.2476 32.2096 44.1584 32.1314 44.0849C31.947 43.9201 31.7073 43.8333 31.4617 43.8424H30.6312V45.4531H31.3953Z" fill="#691C32"/>
<path d="M16.0907 47.194C16.0015 47.1825 15.9167 47.1482 15.8441 47.0943C15.7716 47.0403 15.7138 46.9685 15.6762 46.8856C15.5287 46.6252 15.4785 46.0893 15.2956 45.8378C15.2379 45.7611 15.1622 45.7002 15.0753 45.6607C14.9885 45.6213 14.8934 45.6044 14.7985 45.6118H13.8249V46.8841C13.8249 47.1176 14.086 47.197 14.086 47.197H13.2363C13.2363 47.197 13.4989 47.1176 13.4989 46.8841V43.9951C13.4989 43.7616 13.2363 43.6868 13.2363 43.6868H14.9962C15.7175 43.6868 16.1276 44.1254 16.1276 44.6612C16.1276 45.3244 15.5715 45.5205 15.2351 45.5803C15.4132 45.5986 15.577 45.6873 15.691 45.8273C15.9108 46.1447 15.8886 46.7255 16.1335 46.9605C16.1594 46.987 16.1902 47.008 16.2241 47.0224C16.258 47.0368 16.2944 47.0442 16.3312 47.0443C16.399 47.0422 16.4647 47.0198 16.52 46.9799C16.4841 47.0507 16.428 47.109 16.3591 47.1472C16.2902 47.1853 16.2116 47.2016 16.1335 47.194H16.0907ZM15.7647 44.6612C15.7647 44.1538 15.3694 43.7437 14.7528 43.7437H13.8249V45.5519H14.6834C15.3871 45.5519 15.7647 45.1702 15.7647 44.6612Z" fill="#691C32"/>
<path d="M17.5839 47.2898L17.5574 47.0937C17.5647 47.0937 17.7477 47.0354 17.7477 46.8812V43.9952C17.7477 43.8455 17.5647 43.7856 17.5574 43.7826L17.5839 43.588H20.3719L20.5076 44.2841L20.3188 44.338C20.1551 43.8889 19.8689 43.8425 19.7538 43.8425H18.2787V45.3124H19.6373C19.7627 45.3124 19.8615 45.1433 19.8792 44.9861L20.0754 44.9981V45.8798L19.8792 45.8917C19.8556 45.6986 19.7317 45.5684 19.6417 45.5684H18.2787V47.0384H19.6462C19.863 47.0384 20.1507 46.959 20.4486 46.3348L20.6316 46.4067L20.3675 47.2943L17.5839 47.2898Z" fill="#691C32"/>
<path d="M17.5837 47.1895C17.5837 47.1895 17.8463 47.1146 17.8463 46.8811V43.9951C17.8463 43.7616 17.5837 43.6868 17.5837 43.6868H20.2906L20.4101 44.302C20.2361 43.8275 19.9189 43.7437 19.7537 43.7437H18.1767V45.4127H19.6342C19.795 45.4127 19.9469 45.2361 19.9735 44.998V45.8797C19.9469 45.6507 19.7994 45.4681 19.6386 45.4681H18.1767V47.1386H19.643C19.9145 47.1386 20.2331 47.0218 20.5281 46.3782L20.2847 47.194L17.5837 47.1895Z" fill="#691C32"/>
<path d="M23.0181 47.2943H22.9134C22.3904 47.2706 21.896 47.0452 21.5312 46.6641L21.5032 46.6342V45.5639L21.6994 45.5504C21.779 46.1387 21.9944 46.5623 22.3263 46.8078C22.5002 46.933 22.7039 47.0084 22.9164 47.0264H23.0181C23.3751 47.0264 23.9386 46.8273 23.9386 46.3004V46.248C23.9121 45.8842 23.4194 45.745 22.906 45.5983C22.2732 45.4187 21.5563 45.2166 21.5563 44.5281V44.4906C21.5644 44.3608 21.6027 44.2348 21.6681 44.1229C21.7335 44.011 21.8241 43.9165 21.9324 43.847C22.2054 43.6701 22.5249 43.5819 22.8485 43.594H22.9296C23.3521 43.6239 23.7554 43.7848 24.0847 44.055L24.1186 44.085V44.9472L23.9239 44.9666C23.8733 44.6207 23.7022 44.3047 23.4415 44.076C23.2915 43.9498 23.1085 43.8707 22.9149 43.8485H22.8367C22.4251 43.8485 22.0991 44.0595 22.0829 44.3394V44.3649C22.087 44.4615 22.118 44.555 22.1723 44.6344C22.2266 44.7139 22.302 44.7762 22.3897 44.814C22.6354 44.9353 22.8937 45.0282 23.1598 45.0909C23.4569 45.1624 23.745 45.2684 24.0183 45.4067C24.1478 45.4679 24.2587 45.5632 24.3394 45.6828C24.4201 45.8023 24.4676 45.9417 24.4771 46.0863V46.1387C24.4721 46.3015 24.4294 46.4609 24.3525 46.6039C24.2757 46.7469 24.1667 46.8696 24.0345 46.962C23.7422 47.181 23.3874 47.2971 23.024 47.2928L23.0181 47.2943Z" fill="#691C32"/>
<path d="M22.9194 47.1894C22.421 47.166 21.9499 46.9521 21.6006 46.5907V45.5608C21.7983 47.0248 22.7453 47.1086 22.9149 47.1221H23.0211C23.4637 47.1221 24.0405 46.8661 24.0405 46.2973V46.2419C23.9815 45.3138 21.6507 45.6821 21.6507 44.525V44.492C21.6699 44.043 22.1243 43.6897 22.8456 43.6897H22.9238C23.3243 43.7197 23.7063 43.8733 24.0183 44.1298V44.9456C23.834 43.9951 23.1864 43.766 22.9194 43.7481H22.8368C22.3411 43.7481 22.0004 44.0175 21.9827 44.3349V44.3633C21.9827 45.3887 24.3163 44.992 24.3768 46.0982V46.1446C24.3768 46.7224 23.7602 47.1924 23.0256 47.1924L22.9194 47.1894Z" fill="#691C32"/>
<path d="M27.1617 47.2897C26.8005 47.2903 26.4473 47.1822 26.1468 46.9789C25.8463 46.7757 25.6119 46.4865 25.4734 46.1481C25.335 45.8096 25.2986 45.437 25.3689 45.0776C25.4392 44.7181 25.6131 44.3879 25.8684 44.1288C26.1238 43.8696 26.4492 43.6932 26.8035 43.6219C27.1577 43.5505 27.5249 43.5874 27.8584 43.728C28.1919 43.8685 28.4769 44.1063 28.6772 44.4112C28.8775 44.7162 28.9841 45.0746 28.9835 45.4411C28.9823 45.931 28.79 46.4005 28.4486 46.747C28.1072 47.0934 27.6445 47.2886 27.1617 47.2897ZM27.1617 43.8469C26.4654 43.8469 25.899 44.5639 25.899 45.4456C25.899 46.3272 26.4654 47.0427 27.1617 47.0427C27.8579 47.0427 28.4274 46.3257 28.4274 45.4456C28.4274 44.5654 27.8535 43.8424 27.1573 43.8424L27.1617 43.8469Z" fill="#691C32"/>
<path d="M25.4329 45.4411C25.4323 45.0947 25.5329 44.7559 25.7221 44.4676C25.9113 44.1793 26.1804 43.9543 26.4956 43.8212C26.8107 43.6881 27.1577 43.6528 27.4926 43.7198C27.8275 43.7868 28.1353 43.9531 28.3771 44.1976C28.6189 44.4421 28.7838 44.7539 28.8509 45.0935C28.9181 45.4331 28.8845 45.7853 28.7544 46.1056C28.6243 46.4258 28.4036 46.6997 28.1201 46.8927C27.8366 47.0856 27.5031 47.1889 27.1617 47.1895C26.7041 47.1899 26.265 47.006 25.9409 46.6782C25.6167 46.3504 25.434 45.9055 25.4329 45.4411ZM28.5218 45.4411C28.5218 44.5086 27.9111 43.7436 27.1573 43.7436C26.4035 43.7436 25.7957 44.5086 25.7957 45.4411C25.7957 46.3737 26.4035 47.1386 27.1573 47.1386C27.9111 47.1386 28.5218 46.3737 28.5218 45.4411Z" fill="#691C32"/>
<path d="M32.7997 47.194C32.7108 47.1823 32.6262 47.1479 32.5539 47.0939C32.4817 47.04 32.4241 46.9683 32.3867 46.8856C32.2391 46.6252 32.189 46.0893 32.0046 45.8378C31.9481 45.7596 31.873 45.6972 31.7864 45.6564C31.6997 45.6156 31.6043 45.5976 31.509 45.6043H30.5339V46.8767C30.5339 47.1102 30.7965 47.1895 30.7965 47.1895H29.9468C29.9468 47.1895 30.2138 47.1087 30.2138 46.8812V43.9951C30.2138 43.7616 29.9527 43.6868 29.9527 43.6868H31.7125C32.4339 43.6868 32.8425 44.1254 32.8425 44.6613C32.8425 45.3244 32.2864 45.5205 31.9574 45.5803C32.135 45.5987 32.2983 45.6874 32.4117 45.8273C32.633 46.1447 32.6094 46.7255 32.8543 46.9605C32.8801 46.9871 32.9108 47.0083 32.9448 47.0227C32.9787 47.0371 33.0152 47.0444 33.0519 47.0443C33.1193 47.042 33.1844 47.0197 33.2393 46.98C33.2036 47.0506 33.1478 47.1088 33.0792 47.147C33.0105 47.1852 32.9322 47.2015 32.8543 47.194H32.7997ZM32.4737 44.6613C32.4737 44.1538 32.0784 43.7437 31.4632 43.7437H30.5339V45.5519H31.3939C32.0975 45.5519 32.4737 45.1702 32.4737 44.6613Z" fill="#691C32"/>
<path d="M35.5436 47.2898L35.5244 47.0937C35.5244 47.0937 35.7147 47.0354 35.7147 46.8812V43.8425H34.7573C34.6482 43.8425 34.4933 43.9712 34.3885 44.3305L34.1968 44.2841L34.3325 43.588H37.6058L37.7401 44.2841L37.5498 44.3305C37.4834 44.1059 37.3492 43.8425 37.1839 43.8425H36.231V46.8812C36.231 47.0309 36.4139 47.0907 36.4213 47.0937L36.3947 47.2898H35.5436Z" fill="#691C32"/>
<path d="M35.5436 47.1894C35.5436 47.1894 35.8062 47.1145 35.8062 46.881V43.7375H34.7574C34.5922 43.7375 34.4093 43.9052 34.2942 44.2959L34.4137 43.6807H37.5248L37.6443 44.2959C37.5292 43.9052 37.3492 43.7375 37.184 43.7375H36.1322V46.881C36.1322 47.1145 36.3948 47.1894 36.3948 47.1894H35.5436Z" fill="#691C32"/>
<path d="M41.6139 47.2838C41.2477 47.29 40.8914 47.1632 40.6093 46.926C40.4814 46.8191 40.3781 46.685 40.3068 46.5332C40.2354 46.3814 40.1977 46.2155 40.1963 46.0474C40.1963 45.6716 40.4633 45.3319 40.8763 45.1672C40.6933 44.9507 40.5891 44.677 40.5813 44.3918V44.3813C40.5813 43.9188 40.9811 43.5835 41.5342 43.5835H41.6169C42.1095 43.6074 42.5418 44.0056 42.5418 44.4337V44.4891C42.5272 44.6685 42.4441 44.835 42.3102 44.9531C42.1096 45.121 41.868 45.2306 41.611 45.2705C41.9475 45.6464 42.3109 45.9966 42.6981 46.3183C42.7134 46.2699 42.7213 46.2194 42.7217 46.1686C42.7235 46.1099 42.7136 46.0514 42.6926 45.9967C42.6715 45.942 42.6398 45.8922 42.5993 45.8502C42.5588 45.8083 42.5103 45.7751 42.4568 45.7526C42.4033 45.7302 42.3459 45.7189 42.288 45.7195H42.1022L42.409 45.1612L42.4754 45.1702C42.7276 45.2061 43.0802 45.5324 43.0802 45.983C43.0751 46.1651 43.0243 46.3428 42.9327 46.4994C43.0894 46.6318 43.2785 46.7186 43.48 46.7509C43.4967 46.752 43.5134 46.752 43.5301 46.7509H43.5419L43.6157 46.929C43.4911 47.0081 43.3466 47.0487 43.1997 47.0458C43.0102 47.0426 42.8245 46.9912 42.6598 46.8961C42.3744 47.159 41.9991 47.2982 41.6139 47.2838ZM40.7288 46.0504C40.7384 46.3042 40.8467 46.5439 41.03 46.717C41.2133 46.89 41.4566 46.9824 41.7068 46.9739H41.7201C41.9808 46.977 42.2344 46.8875 42.437 46.721C41.9395 46.3507 41.4891 45.9194 41.0961 45.4366C40.9903 45.4967 40.9013 45.5832 40.8378 45.688C40.7743 45.7928 40.7383 45.9124 40.7332 46.0354L40.7288 46.0504ZM41.0829 44.3155C41.0829 44.528 41.2407 44.8035 41.3985 45.01C41.546 44.9621 41.9561 44.802 42.024 44.4247C42.0258 44.4063 42.0258 44.3878 42.024 44.3694C42.024 44.1852 41.9148 43.8799 41.6198 43.844H41.5711C41.4542 43.8412 41.3402 43.8817 41.2506 43.958C41.161 44.0344 41.1019 44.1412 41.0843 44.2586L41.0829 44.3155Z" fill="#691C32"/>
<path d="M40.2935 46.0475C40.2935 45.7062 40.5605 45.3514 41.031 45.2167C40.7271 44.8395 40.6726 44.6104 40.6726 44.3919V44.3814C40.6726 43.9862 41.0178 43.6824 41.5281 43.6824H41.6063C42.0607 43.7063 42.4368 44.0746 42.4368 44.4308V44.4817C42.4191 44.7063 42.2805 45.0805 41.4264 45.2002C41.8253 45.6641 42.2653 46.09 42.7407 46.4726C42.7922 46.3769 42.8206 46.2702 42.8233 46.1612C42.8251 46.0893 42.8126 46.0177 42.7866 45.9507C42.7606 45.8838 42.7216 45.8228 42.672 45.7714C42.6223 45.72 42.563 45.6793 42.4975 45.6516C42.432 45.624 42.3617 45.6099 42.2908 45.6104H42.2716L42.4649 45.2601C42.6163 45.3054 42.7489 45.3997 42.8427 45.5286C42.9364 45.6575 42.9861 45.8139 42.9841 45.9741C42.9783 46.1674 42.9179 46.355 42.81 46.5145C42.81 46.5145 43.1906 46.8408 43.4857 46.8408C43.5119 46.84 43.5381 46.837 43.5638 46.8318C43.4564 46.8995 43.3318 46.9338 43.2054 46.9306C43.0073 46.9248 42.8147 46.8632 42.6493 46.7525C42.5163 46.8934 42.3557 47.0044 42.1778 47.0784C42 47.1524 41.8088 47.1877 41.6167 47.1821C40.8643 47.1851 40.2935 46.6717 40.2935 46.0475ZM42.5829 46.7091C42.0302 46.3117 41.5338 45.8393 41.1077 45.305C40.7301 45.5251 40.6254 45.8184 40.6254 46.037V46.052C40.6358 46.3316 40.7546 46.5958 40.956 46.787C41.1574 46.9782 41.4251 47.0809 41.7007 47.0728H41.7199C41.8807 47.0756 42.0402 47.0447 42.1887 46.9821C42.3372 46.9195 42.4713 46.8266 42.5829 46.7091ZM42.1182 44.4428C42.1205 44.4179 42.1205 44.3928 42.1182 44.368C42.1182 44.1389 41.981 43.7857 41.627 43.7438H41.5724C41.4301 43.7394 41.2912 43.7884 41.1823 43.8815C41.0735 43.9746 41.0023 44.1052 40.9823 44.2482V44.3186C40.9823 44.5835 41.1844 44.9173 41.3585 45.1299C41.36 45.1239 42.0223 44.9787 42.1182 44.4428Z" fill="#691C32"/>
<path d="M47.473 47.2943H47.3683C46.845 47.27 46.3503 47.0447 45.9846 46.6642L45.9565 46.6342V45.5639L46.1527 45.5505C46.2309 46.1387 46.4478 46.5624 46.7797 46.8079C46.9535 46.933 47.1573 47.0085 47.3697 47.0264H47.4715C47.8285 47.0264 48.3905 46.8273 48.3905 46.3004V46.248C48.3655 45.8843 47.8728 45.7451 47.3579 45.5984C46.7251 45.4187 46.0082 45.2167 46.0082 44.5281V44.4907C46.0167 44.3609 46.0551 44.2351 46.1205 44.1232C46.1858 44.0114 46.2762 43.9168 46.3843 43.847C46.6578 43.67 46.9778 43.5818 47.3019 43.594H47.3815C47.804 43.6239 48.2073 43.7848 48.5366 44.0551L48.572 44.085V44.9472L48.3773 44.9667C48.3268 44.6204 48.155 44.3042 47.8934 44.076C47.7441 43.9496 47.5615 43.8705 47.3683 43.8485H47.2901C46.877 43.8485 46.5525 44.0595 46.5363 44.3395V44.3649C46.5404 44.4615 46.5714 44.555 46.6257 44.6345C46.68 44.7139 46.7554 44.7762 46.8431 44.814C47.0886 44.9355 47.347 45.0285 47.6131 45.0909C47.9103 45.1624 48.1984 45.2684 48.4717 45.4068C48.6011 45.468 48.7119 45.5634 48.7926 45.6829C48.8733 45.8025 48.9209 45.9418 48.9304 46.0863V46.1387C48.9248 46.3014 48.8818 46.4605 48.805 46.6034C48.7282 46.7463 48.6196 46.8691 48.4879 46.962C48.1951 47.1812 47.8398 47.2974 47.4759 47.2928L47.473 47.2943Z" fill="#691C32"/>
<path d="M47.3754 47.1894C46.8771 47.166 46.4059 46.9521 46.0566 46.5907V45.5608C46.2543 47.0248 47.1999 47.1086 47.371 47.1221H47.4757C47.9183 47.1221 48.4965 46.8661 48.4965 46.2973V46.2419C48.436 45.3138 46.1068 45.6821 46.1068 44.525V44.492C46.1245 44.043 46.5803 43.6897 47.3017 43.6897H47.3798C47.7798 43.7193 48.1612 43.8723 48.4729 44.1283V44.9441C48.29 43.9936 47.6424 43.7645 47.3754 43.7466H47.2928C46.7957 43.7466 46.4564 44.016 46.4372 44.3334V44.3618C46.4372 45.3872 48.7724 44.9905 48.8314 46.0967V46.1431C48.8314 46.7209 48.2162 47.1909 47.4801 47.1909L47.3754 47.1894Z" fill="#691C32"/>
<path d="M49.8879 47.2897L49.8628 47.0937C49.8628 47.0937 50.0531 47.0353 50.0531 46.8811V43.9951C50.0531 43.8454 49.8643 43.784 49.8628 43.7825L49.8893 43.5879H51.6492C51.9769 43.5759 52.2974 43.6873 52.549 43.9008C52.6529 43.9971 52.7356 44.1147 52.7915 44.2457C52.8474 44.3768 52.8754 44.5184 52.8735 44.6612C52.8791 44.862 52.8215 45.0593 52.709 45.2246C52.5966 45.3899 52.4351 45.5145 52.2481 45.5803C52.056 45.6588 51.8517 45.7019 51.6448 45.7075H50.5709V46.8811C50.5709 47.0308 50.7538 47.0907 50.7626 47.0937L50.7375 47.2897H50.4735H49.8879ZM51.3365 45.4531C51.9398 45.4531 52.3145 45.1537 52.3145 44.6612C52.3157 44.5534 52.2948 44.4465 52.2532 44.3473C52.2115 44.2481 52.15 44.1587 52.0725 44.0849C51.8895 43.9197 51.6506 43.8328 51.4058 43.8424H50.5709V45.4531H51.3365Z" fill="#691C32"/>
<path d="M49.8894 47.1895C49.8894 47.1895 50.152 47.1146 50.152 46.8811V43.9951C50.152 43.7616 49.8894 43.6868 49.8894 43.6868H51.6492C52.3706 43.6868 52.7763 44.1254 52.7763 44.6612C52.7763 45.6043 51.6448 45.6088 51.6448 45.6088H50.478V46.8811C50.478 47.1146 50.7391 47.1895 50.7391 47.1895H50.478H49.8894ZM52.4119 44.6612C52.4119 44.1538 52.0225 43.7437 51.4058 43.7437H50.478V45.5519H51.3365C52.0461 45.5519 52.4119 45.1702 52.4119 44.6612Z" fill="#691C32"/>
<path d="M55.8356 47.2899L55.815 47.0923C55.8931 47.0743 55.9861 47.0384 55.9861 46.9606C55.9873 46.9486 55.9873 46.9366 55.9861 46.9246L55.7338 46.3603H53.9828L53.7262 46.9426C53.7248 46.951 53.7248 46.9596 53.7262 46.968C53.7262 47.0444 53.8427 47.0803 53.9106 47.0953L53.8899 47.2929H53.201L53.1892 47.0938C53.2557 47.0802 53.3182 47.0512 53.3719 47.0092C53.4257 46.9671 53.4691 46.9131 53.499 46.8513L55.0169 43.4489L56.5304 46.8528C56.556 46.91 56.593 46.9612 56.6393 47.0029C56.6855 47.0447 56.7399 47.0762 56.7989 47.0953L56.7768 47.2929L55.8356 47.2899ZM55.6158 46.1058L54.8576 44.4009L54.0994 46.1058H55.6158Z" fill="#691C32"/>
<path d="M55.8356 47.1894C56.048 47.143 56.0849 47.0307 56.0849 46.9604C56.0853 46.937 56.0818 46.9137 56.0746 46.8915L55.7899 46.2568H53.9194L53.6391 46.8915C53.6276 46.9142 53.6215 46.9393 53.6214 46.9649C53.6214 47.0397 53.6671 47.143 53.8825 47.1894H53.1936C53.2766 47.1735 53.3547 47.1382 53.4218 47.0862C53.4889 47.0342 53.5431 46.967 53.5801 46.89L55.0095 43.6852L56.433 46.89C56.4646 46.9615 56.5111 47.0252 56.5691 47.0768C56.6271 47.1285 56.6954 47.1669 56.7693 47.1894H55.8356ZM54.8576 44.1582L53.9474 46.2104H55.7677L54.8576 44.1582Z" fill="#691C32"/>
</svg>
