<svg width="230" height="230" viewBox="0 0 230 230" fill="none" xmlns="http://www.w3.org/2000/svg">
<path d="M141.045 56.7283L141.994 57.8892L141.045 56.7283ZM137.788 55.3794L139.281 55.2301L137.788 55.3794ZM138.586 58.0587L138.012 59.4445L138.586 58.0587ZM170.491 34.9627L169.43 36.0234L170.491 34.9627ZM167.81 34.829L166.861 33.6681L167.81 34.829ZM169.194 34.0311L169.269 32.533L169.194 34.0311ZM195.037 59.5088L196.098 58.4481L195.037 59.5088ZM195.969 60.806L194.471 60.8807L195.969 60.806ZM174.62 92.2121L174.471 93.7046L174.62 92.2121ZM173.271 88.9555L172.11 88.0057L173.271 88.9555ZM171.941 91.4142L173.327 90.8402L171.941 91.4142ZM209.032 95.6533L209.182 94.1608L209.032 95.6533ZM210.575 96.0674L211.687 95.0609L210.575 96.0674ZM209.032 134.347L209.182 135.839L209.032 134.347ZM210.575 133.933L209.463 132.926L210.575 133.933ZM173.275 141.044L172.114 141.994L173.275 141.044ZM174.624 137.788L174.773 139.28L174.624 137.788ZM171.945 138.586L170.559 138.012L171.945 138.586ZM195.038 170.487L193.977 169.427L195.038 170.487ZM195.171 167.806L196.332 166.857L195.171 167.806ZM195.969 169.19L194.471 169.115L195.969 169.19ZM167.811 195.167L168.761 194.006L167.811 195.167ZM170.491 195.033L171.552 196.094L170.491 195.033ZM169.194 195.965L169.269 197.463L169.194 195.965ZM137.788 174.617L136.296 174.467L137.788 174.617ZM141.045 173.268L141.995 172.107L141.045 173.268ZM138.586 171.937L139.16 173.323L138.586 171.937ZM133.933 210.575L134.939 211.687L133.933 210.575ZM95.6533 209.032L94.1608 209.182L95.6533 209.032ZM96.0674 210.575L97.0739 209.463L96.0674 210.575ZM88.9556 173.271L88.0057 172.11L88.9556 173.271ZM92.2121 174.62L93.7047 174.471L92.2121 174.62ZM91.4143 171.941L90.8402 173.327L91.4143 171.941ZM59.5083 195.038L58.4477 196.098L59.5083 195.038ZM62.189 195.171L61.2392 194.01L62.189 195.171ZM60.8056 195.969L60.7308 197.467L60.8056 195.969ZM34.8286 167.811L33.6676 166.861L34.8286 167.811ZM34.9623 170.492L33.9016 171.552L34.9623 170.492ZM34.0307 169.194L35.5288 169.12L34.0307 169.194ZM55.3793 137.788L55.5286 136.295L55.3793 137.788ZM56.7283 141.045L57.8892 141.994L56.7283 141.045ZM58.0586 138.586L59.4445 138.012L58.0586 138.586ZM19.1667 132.357H20.6667H19.1667ZM20.9677 134.347L21.117 132.854L20.9677 134.347ZM19.4253 133.933L18.3131 134.939L19.4253 133.933ZM20.9677 95.6533L21.117 97.1459L20.9677 95.6533ZM19.1667 97.6434H17.6667H19.1667ZM19.4253 96.0674L20.5375 97.0739L19.4253 96.0674ZM56.7318 88.9552L57.8928 88.0054L56.7318 88.9552ZM55.3829 92.2118L55.5322 93.7043L55.3829 92.2118ZM58.0622 91.4139L59.448 91.988L58.0622 91.4139ZM34.9627 59.5044L36.0234 60.5651L34.9627 59.5044ZM34.829 62.1851L33.6681 63.135L34.829 62.1851ZM34.0311 60.8016L35.5293 60.8764L34.0311 60.8016ZM62.1895 34.8247L63.1393 33.6637L62.1895 34.8247ZM59.5088 34.9584L58.4481 33.8977L59.5088 34.9584ZM60.806 34.0268L60.7313 32.5286L60.806 34.0268ZM92.2125 55.3756L90.72 55.2264L92.2125 55.3756ZM88.956 56.7245L88.0061 57.8855L88.956 56.7245ZM91.4147 58.0549L91.9887 59.4407L91.4147 58.0549ZM134.347 20.9677L132.854 21.117L134.347 20.9677ZM133.933 19.4253L134.939 18.3131L133.933 19.4253ZM95.6533 20.9677L97.1459 21.117L95.6533 20.9677ZM96.0674 19.4253L95.0609 18.3131L96.0674 19.4253ZM97.6434 20.6667H132.357V17.6667H97.6434V20.6667ZM93.7051 55.5249L97.1459 21.117L94.1608 20.8185L90.72 55.2264L93.7051 55.5249ZM61.2396 35.9856L88.0061 57.8855L89.9058 55.5636L63.1393 33.6637L61.2396 35.9856ZM36.0234 60.5651L60.5694 36.019L58.4481 33.8977L33.902 58.4438L36.0234 60.5651ZM57.8928 88.0054L35.9899 61.2353L33.6681 63.135L55.5709 89.9051L57.8928 88.0054ZM21.117 97.1459L55.5322 93.7043L55.2337 90.7192L20.8185 94.1608L21.117 97.1459ZM20.6667 132.357L20.6667 97.6434H17.6667L17.6667 132.357H20.6667ZM55.5286 136.295L21.117 132.854L20.8185 135.839L55.2301 139.281L55.5286 136.295ZM35.9895 168.761L57.8892 141.994L55.5673 140.095L33.6676 166.861L35.9895 168.761ZM60.569 193.977L36.0229 169.431L33.9016 171.552L58.4477 196.098L60.569 193.977ZM88.0057 172.11L61.2392 194.01L63.1389 196.332L89.9054 174.432L88.0057 172.11ZM97.1459 208.883L93.7047 174.471L90.7196 174.77L94.1608 209.182L97.1459 208.883ZM132.357 209.333H97.6434V212.333H132.357V209.333ZM136.296 174.467L132.854 208.883L135.839 209.182L139.281 174.766L136.296 174.467ZM168.761 194.006L141.995 172.107L140.095 174.429L166.861 196.328L168.761 194.006ZM193.977 169.427L169.431 193.973L171.552 196.094L196.098 171.548L193.977 169.427ZM172.114 141.994L194.01 168.756L196.332 166.857L174.436 140.094L172.114 141.994ZM208.883 132.854L174.475 136.295L174.773 139.28L209.182 135.839L208.883 132.854ZM209.333 97.6434V132.357H212.333V97.6434H209.333ZM174.471 93.7046L208.883 97.1459L209.182 94.1608L174.769 90.7195L174.471 93.7046ZM194.01 61.2396L172.11 88.0057L174.432 89.9054L196.332 63.1393L194.01 61.2396ZM169.43 36.0234L193.976 60.5694L196.098 58.4481L171.552 33.902L169.43 36.0234ZM141.994 57.8892L168.76 35.9899L166.861 33.6681L140.095 55.5674L141.994 57.8892ZM132.854 21.117L136.295 55.5286L139.281 55.2301L135.839 20.8185L132.854 21.117ZM140.095 55.5674C139.42 56.1194 139.045 56.4211 138.776 56.5818C138.509 56.7414 138.761 56.5076 139.16 56.6729L138.012 59.4445C138.964 59.8388 139.809 59.4596 140.316 59.1566C140.821 58.8547 141.399 58.3768 141.994 57.8892L140.095 55.5674ZM136.295 55.5286C136.372 56.2947 136.443 57.0413 136.586 57.6117C136.73 58.1842 137.06 59.0502 138.012 59.4445L139.16 56.6729C139.559 56.8382 139.571 57.1813 139.496 56.8798C139.419 56.5762 139.367 56.0976 139.281 55.2301L136.295 55.5286ZM171.552 33.902C171.276 33.6263 170.969 33.3157 170.675 33.0885C170.347 32.8351 169.885 32.5637 169.269 32.533L169.119 35.5293C169.018 35.5242 168.929 35.4988 168.867 35.4712C168.815 35.4481 168.803 35.4332 168.842 35.4635C168.883 35.4948 168.947 35.5499 169.051 35.6494C169.155 35.7486 169.275 35.8675 169.43 36.0234L171.552 33.902ZM168.76 35.9899C168.931 35.8504 169.061 35.7439 169.175 35.6556C169.288 35.567 169.358 35.5185 169.401 35.4914C169.443 35.4651 169.43 35.4788 169.376 35.4966C169.311 35.5179 169.22 35.5343 169.119 35.5293L169.269 32.533C168.653 32.5023 168.166 32.7263 167.814 32.9458C167.498 33.1425 167.162 33.4211 166.861 33.6681L168.76 35.9899ZM196.332 63.1393C196.579 62.8375 196.857 62.5016 197.054 62.186C197.273 61.8341 197.498 61.3472 197.467 60.7313L194.471 60.8807C194.466 60.7794 194.482 60.689 194.503 60.6241C194.521 60.5697 194.535 60.5565 194.508 60.5987C194.481 60.6421 194.433 60.7114 194.344 60.8253C194.256 60.9387 194.149 61.069 194.01 61.2396L196.332 63.1393ZM193.976 60.5694C194.132 60.7253 194.251 60.8443 194.35 60.9485C194.45 61.0529 194.505 61.1171 194.536 61.1575C194.567 61.1969 194.552 61.1851 194.529 61.1328C194.501 61.0704 194.476 60.982 194.471 60.8807L197.467 60.7313C197.436 60.1153 197.165 59.6531 196.911 59.3248C196.684 59.0304 196.374 58.7239 196.098 58.4481L193.976 60.5694ZM174.769 90.7195C173.902 90.6328 173.423 90.5809 173.12 90.5045C172.818 90.4287 173.161 90.4412 173.327 90.8402L170.555 91.9883C170.949 92.9401 171.815 93.2699 172.388 93.4139C172.958 93.5574 173.705 93.628 174.471 93.7046L174.769 90.7195ZM172.11 88.0057C171.623 88.6015 171.145 89.1794 170.843 89.6842C170.54 90.1909 170.161 91.0364 170.555 91.9883L173.327 90.8402C173.492 91.2393 173.258 91.4907 173.418 91.2239C173.578 90.9552 173.88 90.5801 174.432 89.9054L172.11 88.0057ZM212.333 97.6434C212.333 97.2534 212.336 96.8171 212.289 96.4482C212.236 96.0369 212.101 95.5181 211.687 95.0609L209.463 97.0739C209.395 96.9987 209.35 96.9183 209.325 96.8546C209.305 96.8012 209.307 96.7823 209.313 96.8317C209.32 96.8824 209.326 96.9668 209.33 97.111C209.333 97.2547 209.333 97.423 209.333 97.6434H212.333ZM208.883 97.1459C209.103 97.1678 209.27 97.1846 209.413 97.2024C209.556 97.2203 209.639 97.235 209.689 97.2466C209.737 97.2578 209.718 97.2581 209.667 97.2323C209.606 97.2014 209.531 97.1491 209.463 97.0739L211.687 95.0609C211.273 94.6036 210.77 94.4178 210.367 94.3241C210.004 94.2401 209.57 94.1996 209.182 94.1608L208.883 97.1459ZM209.182 135.839C209.57 135.801 210.004 135.76 210.367 135.676C210.77 135.582 211.273 135.397 211.687 134.939L209.463 132.926C209.531 132.851 209.606 132.799 209.667 132.768C209.718 132.742 209.737 132.742 209.689 132.754C209.639 132.765 209.556 132.78 209.413 132.798C209.27 132.816 209.102 132.832 208.883 132.854L209.182 135.839ZM209.333 132.357C209.333 132.577 209.333 132.745 209.33 132.889C209.326 133.033 209.32 133.118 209.313 133.168C209.307 133.218 209.305 133.199 209.325 133.146C209.35 133.082 209.395 133.001 209.463 132.926L211.687 134.939C212.101 134.482 212.236 133.963 212.289 133.552C212.336 133.183 212.333 132.747 212.333 132.357H209.333ZM174.436 140.094C173.884 139.42 173.582 139.045 173.421 138.776C173.262 138.509 173.496 138.761 173.33 139.16L170.559 138.012C170.164 138.963 170.544 139.809 170.847 140.316C171.148 140.82 171.626 141.398 172.114 141.994L174.436 140.094ZM174.475 136.295C173.708 136.372 172.962 136.442 172.391 136.586C171.819 136.73 170.953 137.06 170.559 138.012L173.33 139.16C173.165 139.559 172.822 139.571 173.123 139.495C173.427 139.419 173.906 139.367 174.773 139.28L174.475 136.295ZM196.098 171.548C196.374 171.272 196.685 170.966 196.912 170.671C197.165 170.343 197.437 169.881 197.467 169.265L194.471 169.115C194.476 169.014 194.501 168.926 194.529 168.863C194.552 168.811 194.567 168.799 194.537 168.838C194.505 168.879 194.45 168.943 194.351 169.047C194.252 169.152 194.133 169.271 193.977 169.427L196.098 171.548ZM194.01 168.756C194.15 168.927 194.256 169.057 194.345 169.171C194.433 169.285 194.482 169.354 194.509 169.397C194.535 169.439 194.521 169.426 194.504 169.372C194.482 169.307 194.466 169.217 194.471 169.115L197.467 169.265C197.498 168.649 197.274 168.162 197.054 167.81C196.858 167.494 196.579 167.158 196.332 166.857L194.01 168.756ZM166.861 196.328C167.163 196.575 167.499 196.853 167.814 197.05C168.166 197.27 168.653 197.494 169.269 197.463L169.12 194.467C169.221 194.462 169.311 194.478 169.376 194.499C169.431 194.517 169.444 194.531 169.402 194.505C169.358 194.477 169.289 194.429 169.175 194.34C169.062 194.252 168.931 194.146 168.761 194.006L166.861 196.328ZM169.431 193.973C169.275 194.128 169.156 194.247 169.052 194.347C168.947 194.446 168.883 194.501 168.843 194.532C168.803 194.563 168.815 194.548 168.867 194.525C168.93 194.497 169.018 194.472 169.12 194.467L169.269 197.463C169.885 197.432 170.347 197.161 170.675 196.907C170.97 196.68 171.276 196.37 171.552 196.094L169.431 193.973ZM139.281 174.766C139.368 173.898 139.42 173.42 139.496 173.116C139.572 172.815 139.559 173.158 139.16 173.323L138.012 170.551C137.06 170.946 136.731 171.812 136.587 172.384C136.443 172.955 136.372 173.701 136.296 174.467L139.281 174.766ZM141.995 172.107C141.399 171.619 140.821 171.141 140.316 170.839C139.81 170.536 138.964 170.157 138.012 170.551L139.16 173.323C138.761 173.488 138.51 173.255 138.777 173.414C139.045 173.575 139.42 173.877 140.095 174.429L141.995 172.107ZM132.357 212.333C132.747 212.333 133.183 212.336 133.552 212.289C133.963 212.236 134.482 212.101 134.939 211.687L132.926 209.463C133.001 209.395 133.082 209.35 133.146 209.325C133.199 209.305 133.218 209.307 133.168 209.313C133.118 209.32 133.033 209.326 132.889 209.33C132.745 209.333 132.577 209.333 132.357 209.333V212.333ZM132.854 208.883C132.832 209.103 132.816 209.27 132.798 209.413C132.78 209.556 132.765 209.639 132.754 209.689C132.742 209.737 132.742 209.718 132.768 209.667C132.799 209.606 132.851 209.531 132.926 209.463L134.939 211.687C135.397 211.273 135.582 210.77 135.676 210.367C135.76 210.004 135.801 209.57 135.839 209.182L132.854 208.883ZM94.1608 209.182C94.1996 209.57 94.2401 210.004 94.3241 210.367C94.4178 210.77 94.6036 211.273 95.0609 211.687L97.0739 209.463C97.1491 209.531 97.2014 209.606 97.2323 209.667C97.2581 209.718 97.2578 209.737 97.2466 209.689C97.235 209.639 97.2203 209.556 97.2024 209.413C97.1846 209.27 97.1678 209.103 97.1459 208.883L94.1608 209.182ZM97.6434 209.333C97.423 209.333 97.2547 209.333 97.111 209.33C96.9668 209.326 96.8824 209.32 96.8317 209.313C96.7823 209.307 96.8013 209.305 96.8546 209.325C96.9183 209.35 96.9987 209.395 97.0739 209.463L95.0609 211.687C95.5181 212.101 96.0369 212.236 96.4482 212.289C96.8171 212.336 97.2534 212.333 97.6434 212.333V209.333ZM89.9054 174.432C90.5802 173.88 90.9552 173.579 91.2239 173.418C91.4907 173.258 91.2393 173.492 90.8402 173.327L91.9883 170.555C91.0364 170.161 90.1909 170.54 89.6842 170.843C89.1795 171.145 88.6016 171.623 88.0057 172.11L89.9054 174.432ZM93.7047 174.471C93.6281 173.705 93.5574 172.958 93.4139 172.388C93.2699 171.815 92.9401 170.949 91.9883 170.555L90.8402 173.327C90.4412 173.162 90.4287 172.818 90.5046 173.12C90.5809 173.424 90.6328 173.902 90.7196 174.77L93.7047 174.471ZM58.4477 196.098C58.7234 196.374 59.0299 196.685 59.3243 196.912C59.6527 197.165 60.1149 197.437 60.7308 197.467L60.8803 194.471C60.9816 194.476 61.0699 194.501 61.1324 194.529C61.1847 194.552 61.1965 194.567 61.1571 194.537C61.1167 194.506 61.0525 194.45 60.948 194.351C60.8439 194.252 60.7249 194.133 60.569 193.977L58.4477 196.098ZM61.2392 194.01C61.0686 194.15 60.9383 194.256 60.8248 194.345C60.711 194.433 60.6416 194.482 60.5983 194.509C60.5561 194.535 60.5693 194.521 60.6237 194.504C60.6885 194.482 60.779 194.466 60.8803 194.471L60.7308 197.467C61.3468 197.498 61.8337 197.274 62.1856 197.055C62.5012 196.858 62.837 196.579 63.1389 196.332L61.2392 194.01ZM33.6676 166.861C33.4207 167.163 33.1421 167.499 32.9453 167.814C32.7259 168.166 32.5018 168.653 32.5326 169.269L35.5288 169.12C35.5339 169.221 35.5174 169.311 35.4962 169.376C35.4784 169.431 35.4647 169.444 35.491 169.402C35.518 169.358 35.5665 169.289 35.6551 169.175C35.7434 169.062 35.8499 168.931 35.9895 168.761L33.6676 166.861ZM36.0229 169.431C35.8671 169.275 35.7481 169.156 35.649 169.052C35.5495 168.947 35.4943 168.883 35.4631 168.843C35.4327 168.803 35.4477 168.815 35.4708 168.867C35.4984 168.93 35.5238 169.018 35.5288 169.12L32.5326 169.269C32.5633 169.885 32.8347 170.347 33.088 170.676C33.3152 170.97 33.6258 171.276 33.9016 171.552L36.0229 169.431ZM55.2301 139.281C56.0976 139.367 56.5761 139.419 56.8797 139.496C57.1812 139.571 56.8381 139.559 56.6728 139.16L59.4445 138.012C59.0502 137.06 58.1842 136.73 57.6117 136.586C57.0413 136.443 56.2947 136.372 55.5286 136.295L55.2301 139.281ZM57.8892 141.994C58.3767 141.399 58.8547 140.821 59.1565 140.316C59.4595 139.809 59.8387 138.964 59.4445 138.012L56.6728 139.16C56.5075 138.761 56.7413 138.509 56.5818 138.776C56.4211 139.045 56.1194 139.42 55.5673 140.095L57.8892 141.994ZM17.6667 132.357C17.6667 132.747 17.6638 133.183 17.7114 133.552C17.7644 133.963 17.8993 134.482 18.3131 134.939L20.5375 132.926C20.6055 133.001 20.6501 133.082 20.6747 133.146C20.6954 133.199 20.6931 133.218 20.6868 133.168C20.6802 133.118 20.6739 133.033 20.6703 132.889C20.6668 132.745 20.6667 132.577 20.6667 132.357H17.6667ZM21.117 132.854C20.8977 132.832 20.7302 132.816 20.5876 132.798C20.4444 132.78 20.3611 132.765 20.3113 132.754C20.2628 132.742 20.2819 132.742 20.3329 132.768C20.3938 132.799 20.4694 132.851 20.5375 132.926L18.3131 134.939C18.7269 135.397 19.2297 135.582 19.6337 135.676C19.996 135.76 20.4304 135.801 20.8185 135.839L21.117 132.854ZM20.8185 94.1608C20.4304 94.1996 19.996 94.2401 19.6337 94.3241C19.2297 94.4177 18.7269 94.6036 18.3131 95.0609L20.5375 97.0739C20.4694 97.1491 20.3938 97.2014 20.3329 97.2323C20.2819 97.2581 20.2628 97.2578 20.3113 97.2465C20.3611 97.235 20.4444 97.2203 20.5876 97.2024C20.7302 97.1846 20.8977 97.1678 21.117 97.1459L20.8185 94.1608ZM20.6667 97.6434C20.6667 97.423 20.6668 97.2547 20.6703 97.111C20.6739 96.9667 20.6802 96.8823 20.6868 96.8317C20.6931 96.7823 20.6954 96.8012 20.6747 96.8546C20.6501 96.9183 20.6055 96.9987 20.5375 97.0739L18.3131 95.0609C17.8993 95.5181 17.7644 96.0369 17.7114 96.4482C17.6638 96.817 17.6667 97.2534 17.6667 97.6434H20.6667ZM55.5709 89.9051C56.1229 90.5798 56.4247 90.9549 56.5853 91.2236C56.7449 91.4904 56.5111 91.239 56.6764 90.8399L59.448 91.988C59.8423 91.0361 59.4631 90.1906 59.1601 89.6839C58.8582 89.1791 58.3803 88.6012 57.8928 88.0054L55.5709 89.9051ZM55.5322 93.7043C56.2982 93.6277 57.0448 93.5571 57.6152 93.4136C58.1877 93.2696 59.0538 92.9398 59.448 91.988L56.6764 90.8399C56.8417 90.4409 57.1848 90.4284 56.8833 90.5042C56.5797 90.5806 56.1011 90.6325 55.2337 90.7192L55.5322 93.7043ZM33.902 58.4438C33.6263 58.7195 33.3157 59.026 33.0885 59.3204C32.8351 59.6488 32.5637 60.111 32.533 60.7269L35.5293 60.8764C35.5242 60.9777 35.4988 61.066 35.4713 61.1284C35.4481 61.1808 35.4332 61.1926 35.4636 61.1532C35.4948 61.1128 35.5499 61.0486 35.6494 60.9441C35.7486 60.84 35.8675 60.7209 36.0234 60.5651L33.902 58.4438ZM35.9899 61.2353C35.8504 61.0647 35.7439 60.9344 35.6556 60.8209C35.567 60.7071 35.5185 60.6377 35.4914 60.5944C35.4651 60.5521 35.4788 60.5654 35.4966 60.6198C35.5179 60.6846 35.5343 60.7751 35.5293 60.8764L32.533 60.7269C32.5023 61.3429 32.7263 61.8298 32.9458 62.1817C33.1425 62.4973 33.4211 62.8331 33.6681 63.135L35.9899 61.2353ZM63.1393 33.6637C62.8375 33.4168 62.5016 33.1382 62.1861 32.9414C61.8341 32.722 61.3472 32.4979 60.7313 32.5286L60.8807 35.5249C60.7794 35.53 60.689 35.5135 60.6241 35.4923C60.5697 35.4745 60.5565 35.4608 60.5987 35.4871C60.6421 35.5141 60.7114 35.5626 60.8253 35.6512C60.9387 35.7395 61.069 35.846 61.2396 35.9856L63.1393 33.6637ZM60.5694 36.019C60.7253 35.8632 60.8443 35.7442 60.9485 35.6451C61.0529 35.5456 61.1171 35.4904 61.1575 35.4592C61.1969 35.4288 61.1851 35.4438 61.1328 35.4669C61.0704 35.4945 60.982 35.5199 60.8807 35.5249L60.7313 32.5286C60.1153 32.5594 59.6531 32.8308 59.3248 33.0841C59.0304 33.3113 58.7239 33.6219 58.4481 33.8977L60.5694 36.019ZM90.72 55.2264C90.6332 56.0938 90.5814 56.5724 90.505 56.876C90.4291 57.1775 90.4416 56.8344 90.8407 56.6691L91.9887 59.4407C92.9406 59.0465 93.2703 58.1805 93.4143 57.6079C93.5578 57.0376 93.6285 56.2909 93.7051 55.5249L90.72 55.2264ZM88.0061 57.8855C88.602 58.373 89.1799 58.851 89.6847 59.1528C90.1913 59.4558 91.0369 59.835 91.9887 59.4407L90.8407 56.6691C91.2397 56.5038 91.4912 56.7376 91.2243 56.5781C90.9556 56.4174 90.5806 56.1157 89.9058 55.5636L88.0061 57.8855ZM132.357 20.6667C132.577 20.6667 132.745 20.6668 132.889 20.6703C133.033 20.6739 133.118 20.6802 133.168 20.6868C133.218 20.6931 133.199 20.6954 133.146 20.6747C133.082 20.6501 133.001 20.6055 132.926 20.5375L134.939 18.3131C134.482 17.8993 133.963 17.7644 133.552 17.7114C133.183 17.6638 132.747 17.6667 132.357 17.6667V20.6667ZM135.839 20.8185C135.801 20.4304 135.76 19.996 135.676 19.6337C135.582 19.2297 135.397 18.7269 134.939 18.3131L132.926 20.5375C132.851 20.4694 132.799 20.3938 132.768 20.3329C132.742 20.2819 132.742 20.2628 132.754 20.3113C132.765 20.3611 132.78 20.4444 132.798 20.5876C132.816 20.7302 132.832 20.8977 132.854 21.117L135.839 20.8185ZM97.6434 17.6667C97.2534 17.6667 96.8171 17.6638 96.4482 17.7114C96.0369 17.7644 95.5181 17.8993 95.0609 18.3131L97.0739 20.5375C96.9987 20.6055 96.9183 20.6501 96.8546 20.6747C96.8013 20.6954 96.7823 20.6931 96.8317 20.6868C96.8824 20.6802 96.9668 20.6739 97.111 20.6703C97.2547 20.6668 97.423 20.6667 97.6434 20.6667V17.6667ZM97.1459 21.117C97.1678 20.8977 97.1846 20.7302 97.2024 20.5876C97.2203 20.4444 97.235 20.3611 97.2466 20.3113C97.2578 20.2628 97.2581 20.2819 97.2323 20.3329C97.2014 20.3938 97.1491 20.4694 97.0739 20.5375L95.0609 18.3131C94.6036 18.7269 94.4178 19.2297 94.3241 19.6337C94.2401 19.996 94.1996 20.4304 94.1608 20.8185L97.1459 21.117Z" fill="white"/>
<circle cx="115" cy="115" r="28.75" fill="white"/>
</svg>
