<svg width="101" height="46" viewBox="0 0 101 46" fill="none" xmlns="http://www.w3.org/2000/svg">
<g clip-path="url(#clip0_707_2766)">
<path d="M7.89465 1.17014H14.477C17.1281 1.17014 19.1717 1.55077 20.608 2.31203C22.0442 3.0733 22.9721 4.3264 23.3915 6.07136V0.432373H0C1.27683 0.717369 2.41543 1.43911 3.22102 2.47415C3.98125 3.47977 4.47013 4.85897 4.69703 6.6094V29.5248C4.60265 30.5656 4.34201 31.5842 3.92511 32.5417C3.57458 33.3349 3.04334 34.0343 2.37425 34.5835C1.67564 35.1292 0.864464 35.5113 0 35.7019H23.3915V30.1099C22.9705 31.8329 22.0426 33.0727 20.608 33.8293C19.1733 34.5858 17.1296 34.9704 14.477 34.9829H7.89465V1.17014Z" fill="#1C355E"/>
<path d="M60.065 21.4563L59.9784 21.7242L59.2509 23.961L58.4533 26.421L57.1036 30.5609C56.6147 32.0223 55.9948 33.1454 55.2323 33.9255C54.4697 34.7056 53.3165 35.3352 51.7656 35.8263H59.6813C58.5118 35.3352 57.796 34.6515 57.52 33.7563C57.2439 32.8611 57.3328 31.7944 57.7866 30.5609L59.6018 24.9901L60.2217 23.0846L60.9024 21.0122L60.9258 20.9347C60.631 21.0992 60.341 21.2754 60.065 21.4563ZM74.9022 18.7472C74.8616 18.7303 74.8203 18.7154 74.7783 18.7026C74.4726 18.601 74.1599 18.5224 73.8426 18.4676L73.6554 18.4371C73.3461 18.3865 73.0332 18.3621 72.7198 18.3643C72.4414 18.3643 72.142 18.3807 71.8052 18.4136C71.749 18.4136 71.6882 18.4136 71.6297 18.4324L72.6005 21.3929L72.8344 22.0766L75.6016 30.5633C75.6946 30.8209 75.7727 31.0837 75.8356 31.3504L77.8753 27.9012L74.9022 18.7472Z" fill="#1C355E"/>
<path d="M74.1696 16.4894C74.0994 16.4729 74.0222 16.4612 73.952 16.4494C73.1771 16.3369 72.3909 16.3251 71.6129 16.4142C71.4141 16.433 71.2082 16.4588 70.9977 16.4894L70.6398 15.3945L70.2609 14.2479L70.0784 13.6934L69.8445 12.9627L66.6773 3.29181L62.558 15.9913C62.558 15.9913 62.544 15.9913 62.5416 15.9913C62.2539 16.1675 61.9639 16.3508 61.6738 16.5458L66.3521 2.21335L65.8188 0.460571H73.8304C73.0721 0.652881 72.3971 1.08845 71.9076 1.70115C71.4263 2.33652 71.1401 3.09923 71.0842 3.89565C71.0052 4.78214 71.039 5.67512 71.1848 6.55302C71.3441 7.52849 71.5787 8.49002 71.8866 9.4289L72.9018 12.5327L73.2433 13.5759L73.6199 14.7342L74.1696 16.4894Z" fill="#1C355E"/>
<path d="M91.0842 35.1003C93.7353 35.1003 95.7852 34.7181 97.2339 33.9537C98.6826 33.1893 99.598 31.9448 99.98 30.2202V35.8333H76.8926L97.4023 1.1724H88.9462C86.2952 1.1724 84.2461 1.5546 82.7989 2.31899C81.3518 3.08339 80.4364 4.34432 80.0528 6.1018V0.439331H101L80.4902 35.1003H91.0842Z" fill="#1C355E"/>
<path d="M60.0644 21.4564C60.3404 21.2755 60.6305 21.0993 60.9252 20.9277L60.9018 21.0053L60.2211 23.0776L59.6013 24.9831C59.1942 25.453 58.813 25.9394 58.4551 26.414L59.2504 23.961L59.9779 21.7242L60.0644 21.4564Z" fill="#1C355E"/>
<path d="M42.5285 13.5806C42.7526 14.6883 43.2965 15.7053 44.0923 16.5046C44.888 17.3039 45.9005 17.8502 47.0033 18.0753C45.9005 18.3004 44.888 18.8467 44.0923 19.646C43.2965 20.4453 42.7526 21.4623 42.5285 22.57C42.3044 21.4623 41.7605 20.4453 40.9648 19.646C40.169 18.8467 39.1566 18.3004 38.0537 18.0753C39.1566 17.8502 40.169 17.3039 40.9648 16.5046C41.7605 15.7053 42.3044 14.6883 42.5285 13.5806Z" fill="#CEB4A8"/>
<path d="M81.1289 16.2732C80.3492 15.9364 79.5032 15.6192 78.5909 15.3216C77.8437 15.0729 77.0707 14.9105 76.2869 14.8376C76.1559 14.8094 73.8565 14.3183 70.7711 14.9856C66.7946 15.8479 61.8169 18.6768 57.2415 24.4497C54.5304 27.8778 50.6591 33.1854 44.465 34.9218C42.2152 35.5853 39.8243 35.595 37.5692 34.95C35.7374 34.4387 34.0649 33.4685 32.7084 32.1305C31.3063 30.7657 30.2085 29.1176 29.4874 27.2951C28.7188 25.3255 28.2702 23.2446 28.1588 21.1321C28.0187 18.8181 28.2969 16.4976 28.9798 14.2831C29.7703 11.3555 31.2097 8.64544 33.1903 6.35564C35.1318 4.11884 37.3516 2.55246 39.8499 1.65649C42.2213 0.772224 44.8121 0.672611 47.2439 1.37219C48.4951 1.74427 49.6348 2.42242 50.5608 3.34583C51.5082 4.28469 52.2506 5.41131 52.7409 6.65403L55.1105 6.03375C53.5624 4.15768 51.629 2.63969 49.4427 1.58365C46.9759 0.407768 44.2561 -0.131761 41.5294 0.0138769C38.8028 0.159515 36.1553 0.98572 33.8265 2.41775C31.2078 4.03045 29.0635 6.31405 27.6137 9.03415C26.1196 11.8389 25.3379 14.9707 25.3379 18.1517C25.3379 21.3327 26.1196 24.4645 27.6137 27.2692C29.0645 29.9945 31.2061 32.2867 33.8219 33.9138C36.3916 35.534 39.3679 36.3849 42.4019 36.3668C42.5142 36.3668 42.6358 36.3668 42.7317 36.3668C43.9176 36.344 45.093 36.1387 46.217 35.7582L46.2919 35.7347C51.555 33.8316 53.7023 30.3307 56.3082 26.7147C57.3491 25.2392 58.4762 23.827 59.6835 22.4855C59.8309 22.3257 59.983 22.1659 60.135 22.0156C60.2619 21.8942 60.3971 21.7819 60.5397 21.6796C60.8344 21.4329 61.1315 21.2097 61.4379 20.9747C64.8086 18.4607 68.4554 16.9804 71.2904 16.5669C71.4986 16.534 71.6998 16.5105 71.8916 16.4917C72.6526 16.407 73.4212 16.4188 74.1793 16.527C74.2495 16.527 74.322 16.5504 74.3945 16.5669C74.8036 16.637 75.2064 16.74 75.5992 16.8747C76.7817 17.266 77.9226 17.7744 79.005 18.3925C79.9131 18.8883 80.7483 19.5082 81.4868 20.2346L83.6108 17.4903C82.7219 17.0227 81.8985 16.6115 81.1289 16.2732Z" fill="#1C355E"/>
<path d="M17.3002 12.8592L17.2838 12.8757C16.4809 13.6534 15.405 14.0815 14.2897 14.0669H7.44531V14.7976H14.2897C15.4048 14.7841 16.4804 15.212 17.2838 15.9889L17.2978 16.003C18.0948 16.8002 18.6392 17.8163 18.8627 18.9235V9.93872C18.6404 11.0459 18.0967 12.0621 17.3002 12.8592Z" fill="#1C355E"/>
<path d="M24.9023 45.8356C24.9304 45.3985 24.9491 44.9592 24.9632 44.5151C24.9772 44.071 24.9842 43.6293 24.9842 43.1852C24.9842 42.7412 24.9842 42.2971 24.9632 41.8554C24.9421 41.4137 24.9304 40.9719 24.9023 40.5349H28.2169C28.4099 40.5316 28.6021 40.561 28.7853 40.6219C28.9431 40.6754 29.0909 40.7548 29.2228 40.8568C29.346 40.9525 29.4514 41.0695 29.5339 41.2022C29.6138 41.3296 29.6745 41.4681 29.714 41.6134C29.7513 41.7575 29.7679 41.9062 29.7631 42.0551C29.7585 42.2011 29.7309 42.3454 29.6812 42.4827C29.6331 42.6198 29.5611 42.7471 29.4684 42.8587C29.3723 42.9749 29.2547 43.0714 29.1222 43.1429C29.2794 43.2014 29.4233 43.2909 29.5456 43.4061C29.7755 43.6193 29.923 43.9072 29.9619 44.2191C29.9836 44.3753 29.9797 44.534 29.9502 44.689C29.9219 44.8415 29.869 44.9883 29.7935 45.1236C29.7154 45.2649 29.6114 45.39 29.4871 45.4925C29.3517 45.6031 29.1982 45.689 29.0333 45.7463C28.8382 45.8122 28.6333 45.8439 28.4274 45.8403H24.9023V45.8356ZM25.5854 43.0161H28.2029C28.3455 43.0194 28.4867 42.988 28.6146 42.9244C28.7282 42.8678 28.8286 42.7877 28.9093 42.6895C28.9879 42.5858 29.0473 42.4688 29.0848 42.3441C29.1643 42.0862 29.1643 41.8102 29.0848 41.5523C29.0473 41.4276 28.9879 41.3106 28.9093 41.2069C28.8296 41.1076 28.7289 41.0274 28.6146 40.9719C28.4862 40.9074 28.3441 40.8752 28.2005 40.878H25.5854V43.0161ZM25.5854 43.3474V45.5019H28.4134C28.5262 45.5063 28.6388 45.4895 28.7456 45.4526C28.842 45.415 28.9308 45.36 29.0076 45.2905C29.0826 45.2227 29.1466 45.1434 29.197 45.0555C29.2474 44.964 29.2852 44.8659 29.3093 44.7642C29.3607 44.5543 29.3607 44.335 29.3093 44.1251C29.2842 44.0236 29.2464 43.9257 29.197 43.8337C29.0989 43.6487 28.9378 43.5053 28.7432 43.4296C28.6351 43.3878 28.5199 43.367 28.404 43.3685L25.5854 43.3474Z" fill="#CEB4A8"/>
<path d="M31.948 43.5353L33.8731 40.2458C34.1289 40.7158 34.3838 41.1904 34.638 41.6697C34.8906 42.1396 35.148 42.6095 35.4099 43.0794C35.6719 43.5494 35.9386 44.0193 36.2123 44.4727C36.4859 44.9262 36.769 45.3914 37.0661 45.8402H36.231C36.1257 45.6217 35.9971 45.3703 35.8614 45.1095C35.7257 44.8487 35.5643 44.5573 35.3936 44.2519H31.9854C31.8193 44.5385 31.6626 44.8181 31.5176 45.0836C31.3726 45.3491 31.2299 45.6029 31.1036 45.8402H30.5234C30.631 45.6734 30.7433 45.4995 30.8579 45.3162C30.9726 45.133 31.0919 44.945 31.2135 44.75C31.3351 44.555 31.4474 44.3576 31.5784 44.1532L31.948 43.5353ZM35.2064 43.8947L33.7702 41.2233L32.1889 43.8971L35.2064 43.8947Z" fill="#CEB4A8"/>
<path d="M38.5329 40.5325C38.5329 40.7063 38.5142 40.8896 38.5072 41.0799C38.5002 41.2702 38.4932 41.4676 38.4885 41.672C38.4838 41.8764 38.4885 42.0832 38.4744 42.2947C38.4604 42.5061 38.4744 42.7199 38.4744 42.9361V45.4713H40.2522C40.575 45.4713 40.8697 45.4713 41.1411 45.4431C41.385 45.4271 41.6279 45.3973 41.8685 45.3538C42.0602 45.3204 42.2482 45.2685 42.4299 45.1987C42.5736 45.1441 42.7066 45.0645 42.8229 44.9638L42.6147 45.8402H37.7891C37.8008 45.6334 37.8101 45.4149 37.8171 45.1823C37.8242 44.9497 37.8335 44.7124 37.8382 44.4657C37.8429 44.219 37.8382 43.9676 37.8382 43.7115C37.8382 43.4554 37.8382 43.1992 37.8382 42.9431C37.8382 42.727 37.8382 42.5132 37.8382 42.2994C37.8382 42.0855 37.8382 41.8788 37.8382 41.6767C37.8382 41.4746 37.8265 41.2773 37.8171 41.0846C37.8078 40.892 37.8031 40.711 37.7937 40.5372L38.5329 40.5325Z" fill="#CEB4A8"/>
<path d="M44.2518 40.5325C44.2518 40.7063 44.2355 40.8896 44.2261 41.0799C44.2168 41.2702 44.2121 41.4676 44.2074 41.672C44.2027 41.8764 44.2074 42.0832 44.1957 42.2947V42.9361V45.4713H45.9758C46.2963 45.4713 46.5933 45.4713 46.8623 45.4431C47.1063 45.4271 47.3492 45.3973 47.5898 45.3538C47.7822 45.3204 47.971 45.2685 48.1535 45.1987C48.2967 45.1429 48.4295 45.0635 48.5465 44.9638L48.3383 45.8402H43.508C43.508 45.6334 43.529 45.4149 43.5384 45.1823C43.5478 44.9497 43.5524 44.7124 43.5571 44.4657C43.5618 44.219 43.5571 43.9676 43.5571 43.7115C43.5571 43.4554 43.5571 43.1992 43.5571 42.9431C43.5571 42.727 43.5571 42.5132 43.5571 42.2994C43.5571 42.0855 43.5571 41.8788 43.5454 41.6767C43.5337 41.4746 43.5454 41.2773 43.5267 41.0846C43.508 40.892 43.5103 40.711 43.501 40.5372L44.2518 40.5325Z" fill="#CEB4A8"/>
<path d="M49.2302 45.8356C49.2302 45.6617 49.2466 45.4808 49.256 45.2881C49.2653 45.0955 49.2677 44.9005 49.2747 44.696C49.2817 44.4916 49.2747 44.2849 49.2747 44.0734C49.2747 43.8619 49.2747 43.6458 49.2747 43.432C49.2747 43.1735 49.2747 42.9174 49.2747 42.6613C49.2747 42.4052 49.2747 42.1561 49.263 41.9094C49.2513 41.6627 49.263 41.4254 49.2419 41.2046C49.2209 40.9837 49.2256 40.7558 49.2139 40.549H52.5284C52.7131 40.5473 52.897 40.5742 53.0735 40.6289C53.2275 40.6774 53.3728 40.7504 53.5039 40.8451C53.6238 40.9326 53.7282 41.0398 53.8126 41.1623C53.8954 41.2812 53.9601 41.4119 54.0044 41.55C54.0465 41.6864 54.0701 41.8278 54.0746 41.9705C54.0774 42.1132 54.0601 42.2556 54.0232 42.3934C53.9863 42.5321 53.9287 42.6644 53.8524 42.7858C53.772 42.9104 53.6725 43.0214 53.5577 43.1148C53.4323 43.2162 53.2907 43.2956 53.139 43.3497C52.9652 43.4112 52.7828 43.4445 52.5986 43.4484C52.6967 43.5128 52.7843 43.5921 52.8583 43.6834C52.9393 43.7771 53.0121 43.8778 53.0758 43.9841L53.8992 45.3022L54.0232 45.4902C54.0633 45.5442 54.1062 45.5959 54.1518 45.6453C54.1904 45.6855 54.2336 45.721 54.2805 45.751C54.3209 45.7756 54.3666 45.7901 54.4138 45.7933H54.5542V45.8661H53.8875C53.8315 45.8659 53.7761 45.8555 53.7238 45.8356C53.6576 45.8143 53.5952 45.7826 53.539 45.7416C53.4689 45.6936 53.4045 45.6376 53.3471 45.5748C53.2758 45.4961 53.2116 45.4112 53.1553 45.321L52.4209 44.1462C52.3597 44.0502 52.2933 43.9577 52.222 43.869C52.1542 43.7859 52.0755 43.7124 51.9881 43.6505C51.9017 43.5877 51.8063 43.5385 51.7051 43.5048C51.5903 43.4674 51.4702 43.4491 51.3495 43.4508H49.8899C49.8899 43.6669 49.8899 43.8807 49.8899 44.0922C49.8899 44.3037 49.8899 44.5151 49.9039 44.7172C49.918 44.9192 49.9156 45.1166 49.9226 45.3093C49.9297 45.5019 49.939 45.6829 49.9484 45.8567L49.2302 45.8356ZM49.9109 43.0607H52.5308C52.6736 43.0641 52.8151 43.0318 52.9425 42.9667C53.0557 42.9106 53.1555 42.8304 53.2349 42.7318C53.3142 42.6282 53.3744 42.5113 53.4126 42.3864C53.4518 42.2585 53.4715 42.1255 53.4711 41.9917C53.4714 41.8573 53.4524 41.7236 53.415 41.5946C53.3775 41.4699 53.3181 41.3529 53.2396 41.2492C53.157 41.1418 53.0505 41.0555 52.9286 40.9971C52.8067 40.9387 52.6728 40.91 52.5378 40.9132H49.9133L49.9109 43.0607Z" fill="#CEB4A8"/>
<path d="M61.7284 43.1171C61.7269 43.4179 61.6868 43.7171 61.6091 44.0076C61.5391 44.2625 61.4319 44.5055 61.291 44.7289C61.1565 44.9407 60.9891 45.1295 60.7951 45.2881C60.5945 45.4485 60.3734 45.5812 60.1378 45.6828C59.8817 45.7915 59.6141 45.8703 59.3401 45.9178C58.7324 46.0212 58.1117 46.0212 57.5039 45.9178C57.2299 45.8707 56.9622 45.7918 56.7063 45.6828C56.4704 45.5818 56.2492 45.449 56.0489 45.2881C55.8549 45.1289 55.6868 44.9402 55.5507 44.7289C55.4108 44.505 55.3036 44.2621 55.2326 44.0076C55.0735 43.4255 55.0735 42.8111 55.2326 42.229C55.3036 41.9737 55.4108 41.73 55.5507 41.5053C55.6861 41.2941 55.8543 41.1061 56.0489 40.9485C56.2486 40.786 56.4698 40.6523 56.7063 40.5514C56.9626 40.4435 57.2302 40.3647 57.5039 40.3164C58.1117 40.213 58.7324 40.213 59.3401 40.3164C59.6138 40.365 59.8813 40.4438 60.1378 40.5514C60.3739 40.6529 60.5951 40.7865 60.7951 40.9485C60.9895 41.1057 61.157 41.2938 61.291 41.5053C61.4319 41.7295 61.539 41.9734 61.6091 42.229C61.6869 42.5186 61.727 42.8171 61.7284 43.1171ZM61.0103 43.1171C61.0168 42.7426 60.9655 42.3692 60.8582 42.0105C60.7675 41.7142 60.607 41.4442 60.3904 41.2233C60.1626 41.0043 59.8859 40.8432 59.5834 40.7534C58.8178 40.5427 58.0099 40.5427 57.2443 40.7534C56.9416 40.8426 56.6647 41.0038 56.4372 41.2233C56.2207 41.4442 56.0602 41.7142 55.9694 42.0105C55.7636 42.7337 55.7636 43.5005 55.9694 44.2238C56.0596 44.521 56.2201 44.7919 56.4372 45.0132C56.6647 45.2327 56.9416 45.3939 57.2443 45.4831C58.0099 45.6939 58.8178 45.6939 59.5834 45.4831C59.8859 45.3934 60.1626 45.2323 60.3904 45.0132C60.6075 44.7919 60.768 44.521 60.8582 44.2238C60.9703 43.8681 61.0271 43.4972 61.0267 43.1242L61.0103 43.1171Z" fill="#CEB4A8"/>
<path d="M68.8993 43.1171C68.8978 43.4179 68.8577 43.7171 68.78 44.0076C68.709 44.2621 68.6018 44.505 68.4619 44.7289C68.3265 44.9407 68.1583 45.1295 67.9637 45.2881C67.7634 45.449 67.5422 45.5818 67.3063 45.6828C67.0504 45.7918 66.7827 45.8707 66.5087 45.9178C65.9009 46.0212 65.2802 46.0212 64.6725 45.9178C64.3985 45.8703 64.1309 45.7915 63.8748 45.6828C63.6392 45.5812 63.4181 45.4485 63.2175 45.2881C63.0235 45.1295 62.8561 44.9407 62.7216 44.7289C62.5807 44.5055 62.4735 44.2625 62.4035 44.0076C62.2444 43.4255 62.2444 42.8111 62.4035 42.229C62.4735 41.9734 62.5807 41.7295 62.7216 41.5053C62.8556 41.2938 63.0231 41.1057 63.2175 40.9485C63.4175 40.7865 63.6386 40.6529 63.8748 40.5514C64.1313 40.4438 64.3988 40.365 64.6725 40.3164C65.2802 40.213 65.9009 40.213 66.5087 40.3164C66.7824 40.3647 67.05 40.4435 67.3063 40.5514C67.5428 40.6523 67.764 40.786 67.9637 40.9485C68.1588 41.1056 68.327 41.2937 68.4619 41.5053C68.6018 41.73 68.709 41.9737 68.78 42.229C68.8579 42.5186 68.898 42.8171 68.8993 43.1171ZM68.1812 43.1171C68.1881 42.7424 68.136 42.3689 68.0268 42.0105C67.937 41.7138 67.7764 41.4436 67.559 41.2233C67.332 41.0044 67.0561 40.8432 66.7543 40.7534C65.9886 40.5436 65.1809 40.5436 64.4151 40.7534C64.1134 40.8432 63.8375 41.0044 63.6105 41.2233C63.3931 41.4436 63.2325 41.7138 63.1426 42.0105C62.9368 42.7337 62.9368 43.5005 63.1426 44.2238C63.232 44.5214 63.3926 44.7924 63.6105 45.0132C63.8375 45.2322 64.1134 45.3933 64.4151 45.4831C65.1809 45.6929 65.9886 45.6929 66.7543 45.4831C67.0561 45.3933 67.332 45.2322 67.559 45.0132C67.7769 44.7924 67.9375 44.5214 68.0268 44.2238C68.1353 43.8676 68.1874 43.4966 68.1812 43.1242V43.1171Z" fill="#CEB4A8"/>
<path d="M69.623 45.8356C69.6371 45.5818 69.6488 45.3116 69.6581 45.0202C69.6675 44.7289 69.6722 44.4329 69.6768 44.1251C69.6815 43.8173 69.6768 43.5024 69.6768 43.1852C69.6768 42.868 69.6768 42.5555 69.6768 42.2454C69.6768 41.9353 69.6769 41.6392 69.6581 41.3502C69.6394 41.0612 69.6371 40.7887 69.623 40.5349H70.0464C70.1634 40.7205 70.2803 40.9179 70.4277 41.1223L70.8581 41.7637C71.0078 41.9822 71.1646 42.2078 71.326 42.4357C71.4874 42.6636 71.6488 42.9056 71.8148 43.1265L72.3154 43.8173C72.4838 44.0522 72.6523 44.2872 72.8183 44.4963C72.9821 44.2754 73.1482 44.0499 73.3142 43.8173L73.8148 43.1265C73.9801 42.8962 74.1439 42.666 74.306 42.4357C74.4698 42.2008 74.6265 41.9822 74.7739 41.7637L75.2113 41.1223C75.3516 40.9179 75.485 40.7205 75.6089 40.5349H76.0066C75.9856 40.7887 75.9692 41.0589 75.9551 41.3502C75.9411 41.6416 75.9317 41.9376 75.9247 42.2454C75.9177 42.5532 75.9247 42.868 75.9247 43.1852C75.9247 43.5024 75.9247 43.8149 75.9247 44.1251C75.9247 44.4352 75.9411 44.7312 75.9551 45.0202C75.9692 45.3092 75.9856 45.5818 76.0066 45.8356H75.2253C75.2393 45.6405 75.2534 45.4338 75.2651 45.2153C75.2768 44.9968 75.2838 44.7712 75.2885 44.5386C75.2931 44.306 75.2885 44.0687 75.3025 43.8337C75.3166 43.5988 75.3025 43.3474 75.3025 43.103V41.7144L74.7364 42.4874C74.5446 42.7506 74.3528 43.0161 74.1634 43.2816C73.9739 43.5471 73.7844 43.8126 73.6019 44.0734L73.0686 44.837L72.6499 45.4526C72.2476 44.8479 71.8367 44.2527 71.4172 43.6669C70.9977 43.0811 70.572 42.4976 70.14 41.9165V42.9808C70.14 43.2322 70.14 43.486 70.14 43.7397C70.14 43.9935 70.14 44.2425 70.14 44.4845C70.14 44.7266 70.14 44.9545 70.1587 45.1894C70.1774 45.4244 70.1774 45.6335 70.1891 45.8379L69.623 45.8356Z" fill="#CEB4A8"/>
</g>
<defs>
<clipPath id="clip0_707_2766">
<rect width="101" height="46" fill="white"/>
</clipPath>
</defs>
</svg>
